<mxfile host="drawio-plugin" modified="2021-09-21T06:48:49.032Z" agent="5.0 (X11; Linux x86_64) AppleWebKit/537.36 (KHTML, like Gecko) Chrome/89.0.4389.114 Safari/537.36" version="14.7.4" etag="HbpyjoXvaOOj42FwhFhE" type="embed" pages="21"><diagram id="aeba3f77-4ca7-a72d-c84e-d97ed1689493" name="001 - install"><mxGraphModel dx="900" dy="727" grid="1" gridSize="10" guides="1" tooltips="1" connect="1" arrows="1" fold="1" page="1" pageScale="1" pageWidth="1100" pageHeight="850" background="#ffffff" math="0" shadow="0"><root><mxCell id="0"/><mxCell id="1" parent="0"/><mxCell id="2" style="edgeStyle=orthogonalEdgeStyle;rounded=0;html=1;exitX=1;exitY=0.5;startArrow=none;startFill=0;endArrow=classic;endFill=1;jettySize=auto;orthogonalLoop=1;strokeColor=#000000;strokeWidth=3;fontSize=22;fontColor=#000000;" parent="1" source="3" target="5" edge="1"><mxGeometry relative="1" as="geometry"/></mxCell><mxCell id="3" value="Install Go" style="rounded=0;whiteSpace=wrap;html=1;shadow=0;labelBackgroundColor=none;strokeColor=#080808;strokeWidth=2;fillColor=#ffffff;fontSize=22;fontColor=#000000;align=center;" parent="1" vertex="1"><mxGeometry x="223" y="210" width="120" height="60" as="geometry"/></mxCell><mxCell id="4" style="edgeStyle=orthogonalEdgeStyle;rounded=0;html=1;exitX=1;exitY=0.5;startArrow=none;startFill=0;endArrow=classic;endFill=1;jettySize=auto;orthogonalLoop=1;strokeColor=#000000;strokeWidth=3;fontSize=22;fontColor=#000000;" parent="1" source="5" target="6" edge="1"><mxGeometry relative="1" as="geometry"/></mxCell><mxCell id="5" value="Install VSCode" style="rounded=0;whiteSpace=wrap;html=1;shadow=0;labelBackgroundColor=none;strokeColor=#080808;strokeWidth=2;fillColor=#ffffff;fontSize=22;fontColor=#000000;align=center;" parent="1" vertex="1"><mxGeometry x="389" y="210" width="120" height="60" as="geometry"/></mxCell><mxCell id="6" value="Configure VSCode" style="rounded=0;whiteSpace=wrap;html=1;shadow=0;labelBackgroundColor=none;strokeColor=#080808;strokeWidth=2;fillColor=#ffffff;fontSize=22;fontColor=#000000;align=center;" parent="1" vertex="1"><mxGeometry x="564" y="210" width="130" height="60" as="geometry"/></mxCell><mxCell id="7" value="Runtime to build and execute Go programs" style="text;html=1;strokeColor=none;fillColor=none;align=center;verticalAlign=middle;whiteSpace=wrap;rounded=0;shadow=0;labelBackgroundColor=none;fontSize=16;fontColor=#000000;" parent="1" vertex="1"><mxGeometry x="221" y="270" width="125" height="80" as="geometry"/></mxCell><mxCell id="8" value="Code editor with awesome Go integration" style="text;html=1;strokeColor=none;fillColor=none;align=center;verticalAlign=middle;whiteSpace=wrap;rounded=0;shadow=0;labelBackgroundColor=none;fontSize=16;fontColor=#000000;" parent="1" vertex="1"><mxGeometry x="387" y="270" width="125" height="80" as="geometry"/></mxCell><mxCell id="9" value="Install Golang extension" style="text;html=1;strokeColor=none;fillColor=none;align=center;verticalAlign=middle;whiteSpace=wrap;rounded=0;shadow=0;labelBackgroundColor=none;fontSize=16;fontColor=#000000;" parent="1" vertex="1"><mxGeometry x="567" y="280" width="125" height="40" as="geometry"/></mxCell><mxCell id="10" value="https://golang.org/dl/" style="text;html=1;strokeColor=none;fillColor=none;align=center;verticalAlign=middle;whiteSpace=wrap;rounded=0;shadow=0;labelBackgroundColor=none;fontSize=12;fontColor=#000000;" parent="1" vertex="1"><mxGeometry x="221" y="180" width="125" height="30" as="geometry"/></mxCell><mxCell id="11" value="https://code.visualstudio.com/" style="text;html=1;strokeColor=none;fillColor=none;align=center;verticalAlign=middle;whiteSpace=wrap;rounded=0;shadow=0;labelBackgroundColor=none;fontSize=12;fontColor=#000000;" parent="1" vertex="1"><mxGeometry x="387" y="180" width="125" height="30" as="geometry"/></mxCell><mxCell id="12" style="edgeStyle=orthogonalEdgeStyle;rounded=0;html=1;exitX=1;exitY=0.5;startArrow=none;startFill=0;endArrow=classic;endFill=1;jettySize=auto;orthogonalLoop=1;strokeColor=#000000;strokeWidth=3;fontSize=22;fontColor=#000000;" parent="1" target="13" edge="1"><mxGeometry relative="1" as="geometry"><mxPoint x="694.3333333333333" y="240.33333333333337" as="sourcePoint"/></mxGeometry></mxCell><mxCell id="13" value="Write code!" style="rounded=0;whiteSpace=wrap;html=1;shadow=0;labelBackgroundColor=none;strokeColor=#080808;strokeWidth=2;fillColor=#ffffff;fontSize=22;fontColor=#000000;align=center;" parent="1" vertex="1"><mxGeometry x="749" y="210" width="130" height="60" as="geometry"/></mxCell><mxCell id="14" value="The fun part!" style="text;html=1;strokeColor=none;fillColor=none;align=center;verticalAlign=middle;whiteSpace=wrap;rounded=0;shadow=0;labelBackgroundColor=none;fontSize=16;fontColor=#000000;" parent="1" vertex="1"><mxGeometry x="752" y="280" width="125" height="20" as="geometry"/></mxCell></root></mxGraphModel></diagram><diagram id="6bda8576-43bc-58f3-6686-81d57b7cdbae" name="002 - cards"><mxGraphModel dx="990" dy="431" grid="1" gridSize="10" guides="1" tooltips="1" connect="1" arrows="1" fold="1" page="1" pageScale="1" pageWidth="1100" pageHeight="850" background="#ffffff" math="0" shadow="0"><root><mxCell id="0"/><mxCell id="1" parent="0"/><mxCell id="2" value="" style="rounded=0;whiteSpace=wrap;html=1;shadow=0;labelBackgroundColor=none;strokeColor=#080808;strokeWidth=2;fillColor=#ffffff;fontSize=22;fontColor=#000000;align=center;" vertex="1" parent="1"><mxGeometry x="320" y="205" width="240" height="405" as="geometry"/></mxCell><mxCell id="3" value="Cards" style="text;html=1;strokeColor=none;fillColor=none;align=center;verticalAlign=middle;whiteSpace=wrap;rounded=0;shadow=0;labelBackgroundColor=none;fontSize=32;fontColor=#000000;" vertex="1" parent="1"><mxGeometry x="390" y="170" width="100" height="30" as="geometry"/></mxCell><mxCell id="14" style="edgeStyle=orthogonalEdgeStyle;rounded=0;html=1;exitX=1;exitY=0.5;startArrow=none;startFill=0;endArrow=classic;endFill=1;jettySize=auto;orthogonalLoop=1;strokeColor=#000000;strokeWidth=3;fontSize=22;fontColor=#000000;" edge="1" parent="1" source="4"><mxGeometry relative="1" as="geometry"><mxPoint x="600" y="245" as="targetPoint"/></mxGeometry></mxCell><mxCell id="4" value="newDeck" style="rounded=0;whiteSpace=wrap;html=1;shadow=0;labelBackgroundColor=none;strokeColor=#080808;strokeWidth=2;fillColor=#ffffff;fontSize=22;fontColor=#000000;align=center;" vertex="1" parent="1"><mxGeometry x="345" y="220" width="190" height="50" as="geometry"/></mxCell><mxCell id="8" value="print" style="rounded=0;whiteSpace=wrap;html=1;shadow=0;labelBackgroundColor=none;strokeColor=#080808;strokeWidth=2;fillColor=#ffffff;fontSize=22;fontColor=#000000;align=center;" vertex="1" parent="1"><mxGeometry x="345" y="284" width="190" height="50" as="geometry"/></mxCell><mxCell id="9" value="shuffle" style="rounded=0;whiteSpace=wrap;html=1;shadow=0;labelBackgroundColor=none;strokeColor=#080808;strokeWidth=2;fillColor=#ffffff;fontSize=22;fontColor=#000000;align=center;" vertex="1" parent="1"><mxGeometry x="345" y="348" width="190" height="50" as="geometry"/></mxCell><mxCell id="10" value="deal" style="rounded=0;whiteSpace=wrap;html=1;shadow=0;labelBackgroundColor=none;strokeColor=#080808;strokeWidth=2;fillColor=#ffffff;fontSize=22;fontColor=#000000;align=center;" vertex="1" parent="1"><mxGeometry x="345" y="412" width="190" height="50" as="geometry"/></mxCell><mxCell id="11" value="saveToFile" style="rounded=0;whiteSpace=wrap;html=1;shadow=0;labelBackgroundColor=none;strokeColor=#080808;strokeWidth=2;fillColor=#ffffff;fontSize=22;fontColor=#000000;align=center;" vertex="1" parent="1"><mxGeometry x="345" y="476" width="190" height="50" as="geometry"/></mxCell><mxCell id="13" value="newDeckFromFile" style="rounded=0;whiteSpace=wrap;html=1;shadow=0;labelBackgroundColor=none;strokeColor=#080808;strokeWidth=2;fillColor=#ffffff;fontSize=22;fontColor=#000000;align=center;" vertex="1" parent="1"><mxGeometry x="345" y="540" width="190" height="50" as="geometry"/></mxCell><mxCell id="15" value="Create a list of playing cards. &amp;nbsp;Essentially an array of strings" style="text;html=1;strokeColor=none;fillColor=none;align=left;verticalAlign=middle;whiteSpace=wrap;rounded=0;shadow=0;labelBackgroundColor=none;fontSize=14;fontColor=#000000;" vertex="1" parent="1"><mxGeometry x="602" y="218" width="170" height="55" as="geometry"/></mxCell><mxCell id="16" style="edgeStyle=orthogonalEdgeStyle;rounded=0;html=1;exitX=1;exitY=0.5;startArrow=none;startFill=0;endArrow=classic;endFill=1;jettySize=auto;orthogonalLoop=1;strokeColor=#000000;strokeWidth=3;fontSize=22;fontColor=#000000;" edge="1" parent="1"><mxGeometry relative="1" as="geometry"><mxPoint x="600" y="309" as="targetPoint"/><mxPoint x="535" y="309" as="sourcePoint"/></mxGeometry></mxCell><mxCell id="17" value="Log out the contents of a deck of cards" style="text;html=1;strokeColor=none;fillColor=none;align=left;verticalAlign=middle;whiteSpace=wrap;rounded=0;shadow=0;labelBackgroundColor=none;fontSize=14;fontColor=#000000;" vertex="1" parent="1"><mxGeometry x="602" y="282" width="170" height="55" as="geometry"/></mxCell><mxCell id="18" style="edgeStyle=orthogonalEdgeStyle;rounded=0;html=1;exitX=1;exitY=0.5;startArrow=none;startFill=0;endArrow=classic;endFill=1;jettySize=auto;orthogonalLoop=1;strokeColor=#000000;strokeWidth=3;fontSize=22;fontColor=#000000;" edge="1" parent="1"><mxGeometry relative="1" as="geometry"><mxPoint x="600" y="373" as="targetPoint"/><mxPoint x="535" y="373" as="sourcePoint"/></mxGeometry></mxCell><mxCell id="19" value="Shuffles all the cards in a deck" style="text;html=1;strokeColor=none;fillColor=none;align=left;verticalAlign=middle;whiteSpace=wrap;rounded=0;shadow=0;labelBackgroundColor=none;fontSize=14;fontColor=#000000;" vertex="1" parent="1"><mxGeometry x="602" y="346" width="170" height="55" as="geometry"/></mxCell><mxCell id="20" style="edgeStyle=orthogonalEdgeStyle;rounded=0;html=1;exitX=1;exitY=0.5;startArrow=none;startFill=0;endArrow=classic;endFill=1;jettySize=auto;orthogonalLoop=1;strokeColor=#000000;strokeWidth=3;fontSize=22;fontColor=#000000;" edge="1" parent="1"><mxGeometry relative="1" as="geometry"><mxPoint x="600" y="437" as="targetPoint"/><mxPoint x="535" y="437" as="sourcePoint"/></mxGeometry></mxCell><mxCell id="21" value="Create a 'hand' of cards." style="text;html=1;strokeColor=none;fillColor=none;align=left;verticalAlign=middle;whiteSpace=wrap;rounded=0;shadow=0;labelBackgroundColor=none;fontSize=14;fontColor=#000000;" vertex="1" parent="1"><mxGeometry x="602" y="410" width="170" height="55" as="geometry"/></mxCell><mxCell id="22" style="edgeStyle=orthogonalEdgeStyle;rounded=0;html=1;exitX=1;exitY=0.5;startArrow=none;startFill=0;endArrow=classic;endFill=1;jettySize=auto;orthogonalLoop=1;strokeColor=#000000;strokeWidth=3;fontSize=22;fontColor=#000000;" edge="1" parent="1"><mxGeometry relative="1" as="geometry"><mxPoint x="600" y="501" as="targetPoint"/><mxPoint x="535" y="501" as="sourcePoint"/></mxGeometry></mxCell><mxCell id="23" value="Save a list of cards to a file on the local machine" style="text;html=1;strokeColor=none;fillColor=none;align=left;verticalAlign=middle;whiteSpace=wrap;rounded=0;shadow=0;labelBackgroundColor=none;fontSize=14;fontColor=#000000;" vertex="1" parent="1"><mxGeometry x="602" y="474" width="170" height="55" as="geometry"/></mxCell><mxCell id="24" style="edgeStyle=orthogonalEdgeStyle;rounded=0;html=1;exitX=1;exitY=0.5;startArrow=none;startFill=0;endArrow=classic;endFill=1;jettySize=auto;orthogonalLoop=1;strokeColor=#000000;strokeWidth=3;fontSize=22;fontColor=#000000;" edge="1" parent="1"><mxGeometry relative="1" as="geometry"><mxPoint x="600" y="565" as="targetPoint"/><mxPoint x="535" y="565" as="sourcePoint"/></mxGeometry></mxCell><mxCell id="25" value="Load a list of cards from the local machine" style="text;html=1;strokeColor=none;fillColor=none;align=left;verticalAlign=middle;whiteSpace=wrap;rounded=0;shadow=0;labelBackgroundColor=none;fontSize=14;fontColor=#000000;" vertex="1" parent="1"><mxGeometry x="602" y="538" width="170" height="55" as="geometry"/></mxCell></root></mxGraphModel></diagram><diagram id="c6a948a7-d67f-8697-e888-aa29ff2af84d" name="021 - compilation"><mxGraphModel dx="1238" dy="539" grid="1" gridSize="10" guides="1" tooltips="1" connect="1" arrows="1" fold="1" page="1" pageScale="1" pageWidth="1100" pageHeight="850" background="#ffffff" math="0" shadow="0"><root><mxCell id="0"/><mxCell id="1" parent="0"/><mxCell id="20" style="edgeStyle=orthogonalEdgeStyle;rounded=0;html=1;exitX=0.5;exitY=1;entryX=0.5;entryY=0;startArrow=none;startFill=0;endArrow=classic;endFill=1;jettySize=auto;orthogonalLoop=1;strokeColor=#000000;strokeWidth=3;fontSize=22;fontColor=#000000;" edge="1" parent="1" target="13"><mxGeometry relative="1" as="geometry"><mxPoint x="433" y="230" as="sourcePoint"/></mxGeometry></mxCell><mxCell id="2" value="" style="rounded=0;whiteSpace=wrap;html=1;shadow=0;labelBackgroundColor=none;strokeColor=#080808;strokeWidth=2;fillColor=#ffffff;fontSize=32;fontColor=#000000;align=center;" vertex="1" parent="1"><mxGeometry x="401" y="120" width="333" height="110" as="geometry"/></mxCell><mxCell id="3" value="Raw Source Code" style="text;html=1;strokeColor=none;fillColor=none;align=center;verticalAlign=middle;whiteSpace=wrap;rounded=0;shadow=0;labelBackgroundColor=none;fontSize=32;fontColor=#000000;" vertex="1" parent="1"><mxGeometry x="400" y="90" width="330" height="20" as="geometry"/></mxCell><mxCell id="4" value="main.go" style="rounded=0;whiteSpace=wrap;html=1;shadow=0;labelBackgroundColor=none;strokeColor=#080808;strokeWidth=2;fillColor=#ffffff;fontSize=32;fontColor=#000000;align=center;" vertex="1" parent="1"><mxGeometry x="493" y="145" width="150" height="60" as="geometry"/></mxCell><mxCell id="22" style="edgeStyle=orthogonalEdgeStyle;rounded=0;html=1;exitX=0.5;exitY=1;entryX=0.5;entryY=0;startArrow=none;startFill=0;endArrow=classic;endFill=1;jettySize=auto;orthogonalLoop=1;strokeColor=#000000;strokeWidth=3;fontSize=22;fontColor=#000000;" edge="1" parent="1" source="8" target="10"><mxGeometry relative="1" as="geometry"/></mxCell><mxCell id="8" value="Go Compiler" style="rounded=0;whiteSpace=wrap;html=1;shadow=0;labelBackgroundColor=none;strokeColor=#080808;strokeWidth=2;fillColor=#ffffff;fontSize=22;fontColor=#000000;align=center;" vertex="1" parent="1"><mxGeometry x="322" y="340" width="222" height="40" as="geometry"/></mxCell><mxCell id="23" style="edgeStyle=orthogonalEdgeStyle;rounded=0;html=1;exitX=0.5;exitY=1;entryX=0.5;entryY=0;startArrow=none;startFill=0;endArrow=classic;endFill=1;jettySize=auto;orthogonalLoop=1;strokeColor=#000000;strokeWidth=3;fontSize=22;fontColor=#000000;" edge="1" parent="1" source="10" target="19"><mxGeometry relative="1" as="geometry"/></mxCell><mxCell id="10" value="Executable Program" style="rounded=0;whiteSpace=wrap;html=1;shadow=0;labelBackgroundColor=none;strokeColor=#080808;strokeWidth=2;fillColor=#ffffff;fontSize=22;fontColor=#000000;align=center;" vertex="1" parent="1"><mxGeometry x="321" y="420" width="223" height="40" as="geometry"/></mxCell><mxCell id="11" value="How do we run the code in our project?" style="rounded=0;whiteSpace=wrap;html=1;shadow=0;labelBackgroundColor=none;strokeColor=#6c8ebf;strokeWidth=2;fillColor=#dae8fc;fontSize=22;fontColor=#000000;align=center;" vertex="1" parent="1"><mxGeometry x="90" y="100" width="210" height="65" as="geometry"/></mxCell><mxCell id="21" style="edgeStyle=orthogonalEdgeStyle;rounded=0;html=1;exitX=0.5;exitY=1;entryX=0.5;entryY=0;startArrow=none;startFill=0;endArrow=classic;endFill=1;jettySize=auto;orthogonalLoop=1;strokeColor=#000000;strokeWidth=3;fontSize=22;fontColor=#000000;" edge="1" parent="1" source="13" target="8"><mxGeometry relative="1" as="geometry"/></mxCell><mxCell id="13" value="go &lt;b&gt;run&lt;/b&gt; main.go" style="rounded=0;whiteSpace=wrap;html=1;shadow=0;labelBackgroundColor=none;strokeColor=#080808;strokeWidth=2;fillColor=#ffffff;fontSize=22;fontColor=#000000;align=center;fontStyle=2" vertex="1" parent="1"><mxGeometry x="322" y="260" width="222" height="40" as="geometry"/></mxCell><mxCell id="19" value="Runs the program" style="rounded=0;whiteSpace=wrap;html=1;shadow=0;labelBackgroundColor=none;strokeColor=#080808;strokeWidth=2;fillColor=#ffffff;fontSize=22;fontColor=#000000;align=center;" vertex="1" parent="1"><mxGeometry x="321" y="500" width="223" height="40" as="geometry"/></mxCell><mxCell id="24" style="edgeStyle=orthogonalEdgeStyle;rounded=0;html=1;exitX=0.5;exitY=1;entryX=0.5;entryY=0;startArrow=none;startFill=0;endArrow=classic;endFill=1;jettySize=auto;orthogonalLoop=1;strokeColor=#000000;strokeWidth=3;fontSize=22;fontColor=#000000;" edge="1" target="30" parent="1"><mxGeometry relative="1" as="geometry"><mxPoint x="713" y="230" as="sourcePoint"/></mxGeometry></mxCell><mxCell id="25" style="edgeStyle=orthogonalEdgeStyle;rounded=0;html=1;exitX=0.5;exitY=1;entryX=0.5;entryY=0;startArrow=none;startFill=0;endArrow=classic;endFill=1;jettySize=auto;orthogonalLoop=1;strokeColor=#000000;strokeWidth=3;fontSize=22;fontColor=#000000;" edge="1" source="26" target="28" parent="1"><mxGeometry relative="1" as="geometry"/></mxCell><mxCell id="26" value="Go Compiler" style="rounded=0;whiteSpace=wrap;html=1;shadow=0;labelBackgroundColor=none;strokeColor=#080808;strokeWidth=2;fillColor=#ffffff;fontSize=22;fontColor=#000000;align=center;" vertex="1" parent="1"><mxGeometry x="602" y="340" width="222" height="40" as="geometry"/></mxCell><mxCell id="28" value="Executable Program" style="rounded=0;whiteSpace=wrap;html=1;shadow=0;labelBackgroundColor=none;strokeColor=#080808;strokeWidth=2;fillColor=#ffffff;fontSize=22;fontColor=#000000;align=center;" vertex="1" parent="1"><mxGeometry x="601" y="420" width="223" height="40" as="geometry"/></mxCell><mxCell id="29" style="edgeStyle=orthogonalEdgeStyle;rounded=0;html=1;exitX=0.5;exitY=1;entryX=0.5;entryY=0;startArrow=none;startFill=0;endArrow=classic;endFill=1;jettySize=auto;orthogonalLoop=1;strokeColor=#000000;strokeWidth=3;fontSize=22;fontColor=#000000;" edge="1" source="30" target="26" parent="1"><mxGeometry relative="1" as="geometry"/></mxCell><mxCell id="30" value="go &lt;b&gt;build&lt;/b&gt; main.go" style="rounded=0;whiteSpace=wrap;html=1;shadow=0;labelBackgroundColor=none;strokeColor=#080808;strokeWidth=2;fillColor=#ffffff;fontSize=22;fontColor=#000000;align=center;fontStyle=2" vertex="1" parent="1"><mxGeometry x="602" y="260" width="222" height="40" as="geometry"/></mxCell><mxCell id="32" value="build" style="text;html=1;strokeColor=none;fillColor=none;align=center;verticalAlign=middle;whiteSpace=wrap;rounded=0;shadow=0;labelBackgroundColor=none;fontSize=32;fontColor=#000000;fontStyle=2" vertex="1" parent="1"><mxGeometry x="840" y="270" width="70" height="20" as="geometry"/></mxCell><mxCell id="33" value="run" style="text;html=1;strokeColor=none;fillColor=none;align=center;verticalAlign=middle;whiteSpace=wrap;rounded=0;shadow=0;labelBackgroundColor=none;fontSize=32;fontColor=#000000;fontStyle=2" vertex="1" parent="1"><mxGeometry x="250" y="270" width="70" height="20" as="geometry"/></mxCell></root></mxGraphModel></diagram><diagram id="8b3f6886-3117-2912-b567-7f997b62c5a0" name="021 - questions"><mxGraphModel dx="900" dy="727" grid="1" gridSize="10" guides="1" tooltips="1" connect="1" arrows="1" fold="1" page="1" pageScale="1" pageWidth="1100" pageHeight="850" background="#ffffff" math="0" shadow="0"><root><mxCell id="0"/><mxCell id="1" parent="0"/><mxCell id="2" value="How do we run the code in our project?" style="rounded=0;whiteSpace=wrap;html=1;shadow=0;labelBackgroundColor=none;strokeColor=#6c8ebf;strokeWidth=2;fillColor=#dae8fc;fontSize=32;fontColor=#000000;align=center;" parent="1" vertex="1"><mxGeometry x="235" y="150" width="290" height="130" as="geometry"/></mxCell><mxCell id="3" value="Questions!" style="text;html=1;strokeColor=none;fillColor=none;align=center;verticalAlign=middle;whiteSpace=wrap;rounded=0;shadow=0;labelBackgroundColor=none;fontSize=32;fontColor=#000000;fontStyle=5" parent="1" vertex="1"><mxGeometry x="445" y="80" width="200" height="50" as="geometry"/></mxCell><mxCell id="4" value="What does '&lt;i&gt;package main&lt;/i&gt;' mean?" style="rounded=0;whiteSpace=wrap;html=1;shadow=0;labelBackgroundColor=none;strokeColor=#82b366;strokeWidth=2;fillColor=#d5e8d4;fontSize=32;fontColor=#000000;align=center;" parent="1" vertex="1"><mxGeometry x="580" y="150" width="290" height="130" as="geometry"/></mxCell><mxCell id="5" value="What does '&lt;i&gt;import &quot;fmt&quot;&lt;/i&gt;' mean?" style="rounded=0;whiteSpace=wrap;html=1;shadow=0;labelBackgroundColor=none;strokeColor=#b85450;strokeWidth=2;fillColor=#f8cecc;fontSize=32;fontColor=#000000;align=center;" parent="1" vertex="1"><mxGeometry x="235" y="300" width="290" height="130" as="geometry"/></mxCell><mxCell id="6" value="How is the main.go file organized?" style="rounded=0;whiteSpace=wrap;html=1;shadow=0;labelBackgroundColor=none;strokeColor=#d79b00;strokeWidth=2;fillColor=#ffe6cc;fontSize=32;fontColor=#000000;align=center;" parent="1" vertex="1"><mxGeometry x="405" y="460" width="290" height="130" as="geometry"/></mxCell><mxCell id="7" value="What's that '&lt;i&gt;func' &lt;/i&gt;thing?" style="rounded=0;whiteSpace=wrap;html=1;shadow=0;labelBackgroundColor=none;strokeColor=#9673a6;strokeWidth=2;fillColor=#e1d5e7;fontSize=32;fontColor=#000000;align=center;" parent="1" vertex="1"><mxGeometry x="575" y="300" width="290" height="130" as="geometry"/></mxCell></root></mxGraphModel></diagram><diagram id="9eab7059-6054-1eba-c999-8a84036c0b9f" name="003 - go cli"><mxGraphModel dx="1238" dy="539" grid="1" gridSize="10" guides="1" tooltips="1" connect="1" arrows="1" fold="1" page="1" pageScale="1" pageWidth="1100" pageHeight="850" background="#ffffff" math="0" shadow="0"><root><mxCell id="0"/><mxCell id="1" parent="0"/><mxCell id="2" value="" style="rounded=0;whiteSpace=wrap;html=1;shadow=0;labelBackgroundColor=none;strokeColor=#080808;strokeWidth=2;fillColor=#ffffff;fontSize=14;fontColor=#000000;align=left;" vertex="1" parent="1"><mxGeometry x="310" y="110" width="240" height="500" as="geometry"/></mxCell><mxCell id="3" value="Go CLI" style="text;html=1;strokeColor=none;fillColor=none;align=center;verticalAlign=middle;whiteSpace=wrap;rounded=0;shadow=0;labelBackgroundColor=none;fontSize=32;fontColor=#000000;" vertex="1" parent="1"><mxGeometry x="315" y="78" width="230" height="30" as="geometry"/></mxCell><mxCell id="11" style="edgeStyle=orthogonalEdgeStyle;rounded=0;html=1;exitX=1;exitY=0.5;startArrow=none;startFill=0;endArrow=classic;endFill=1;jettySize=auto;orthogonalLoop=1;strokeColor=#000000;strokeWidth=3;fontSize=32;fontColor=#000000;" edge="1" parent="1" source="6"><mxGeometry relative="1" as="geometry"><mxPoint x="590" y="160" as="targetPoint"/></mxGeometry></mxCell><mxCell id="6" value="go build" style="rounded=0;whiteSpace=wrap;html=1;shadow=0;labelBackgroundColor=none;strokeColor=#080808;strokeWidth=2;fillColor=#ffffff;fontSize=32;fontColor=#000000;align=center;flipV=1;" vertex="1" parent="1"><mxGeometry x="330" y="130" width="200" height="60" as="geometry"/></mxCell><mxCell id="7" value="go run" style="rounded=0;whiteSpace=wrap;html=1;shadow=0;labelBackgroundColor=none;strokeColor=#080808;strokeWidth=2;fillColor=#ffffff;fontSize=32;fontColor=#000000;align=center;flipV=1;" vertex="1" parent="1"><mxGeometry x="330" y="210" width="200" height="60" as="geometry"/></mxCell><mxCell id="8" value="go fmt" style="rounded=0;whiteSpace=wrap;html=1;shadow=0;labelBackgroundColor=none;strokeColor=#080808;strokeWidth=2;fillColor=#ffffff;fontSize=32;fontColor=#000000;align=center;flipV=1;" vertex="1" parent="1"><mxGeometry x="330" y="290" width="200" height="60" as="geometry"/></mxCell><mxCell id="9" value="go install" style="rounded=0;whiteSpace=wrap;html=1;shadow=0;labelBackgroundColor=none;strokeColor=#080808;strokeWidth=2;fillColor=#ffffff;fontSize=32;fontColor=#000000;align=center;flipV=1;" vertex="1" parent="1"><mxGeometry x="330" y="370" width="200" height="60" as="geometry"/></mxCell><mxCell id="10" value="go test" style="rounded=0;whiteSpace=wrap;html=1;shadow=0;labelBackgroundColor=none;strokeColor=#080808;strokeWidth=2;fillColor=#ffffff;fontSize=32;fontColor=#000000;align=center;flipV=1;" vertex="1" parent="1"><mxGeometry x="330" y="530" width="200" height="60" as="geometry"/></mxCell><mxCell id="12" value="Compiles a bunch of go source code files" style="text;html=1;strokeColor=none;fillColor=none;align=left;verticalAlign=middle;whiteSpace=wrap;rounded=0;shadow=0;labelBackgroundColor=none;fontSize=16;fontColor=#000000;" vertex="1" parent="1"><mxGeometry x="600" y="135" width="240" height="50" as="geometry"/></mxCell><mxCell id="13" style="edgeStyle=orthogonalEdgeStyle;rounded=0;html=1;exitX=1;exitY=0.5;startArrow=none;startFill=0;endArrow=classic;endFill=1;jettySize=auto;orthogonalLoop=1;strokeColor=#000000;strokeWidth=3;fontSize=32;fontColor=#000000;" edge="1" parent="1"><mxGeometry relative="1" as="geometry"><mxPoint x="590" y="240" as="targetPoint"/><mxPoint x="530" y="240" as="sourcePoint"/></mxGeometry></mxCell><mxCell id="14" value="Compiles and executes one or two files" style="text;html=1;strokeColor=none;fillColor=none;align=left;verticalAlign=middle;whiteSpace=wrap;rounded=0;shadow=0;labelBackgroundColor=none;fontSize=16;fontColor=#000000;" vertex="1" parent="1"><mxGeometry x="600" y="215" width="240" height="50" as="geometry"/></mxCell><mxCell id="17" style="edgeStyle=orthogonalEdgeStyle;rounded=0;html=1;exitX=1;exitY=0.5;startArrow=none;startFill=0;endArrow=classic;endFill=1;jettySize=auto;orthogonalLoop=1;strokeColor=#000000;strokeWidth=3;fontSize=32;fontColor=#000000;" edge="1" parent="1"><mxGeometry relative="1" as="geometry"><mxPoint x="590" y="320" as="targetPoint"/><mxPoint x="530" y="320" as="sourcePoint"/></mxGeometry></mxCell><mxCell id="18" value="Formats all the code in each file in the current directory" style="text;html=1;strokeColor=none;fillColor=none;align=left;verticalAlign=middle;whiteSpace=wrap;rounded=0;shadow=0;labelBackgroundColor=none;fontSize=16;fontColor=#000000;" vertex="1" parent="1"><mxGeometry x="600" y="295" width="240" height="50" as="geometry"/></mxCell><mxCell id="19" style="edgeStyle=orthogonalEdgeStyle;rounded=0;html=1;exitX=1;exitY=0.5;startArrow=none;startFill=0;endArrow=classic;endFill=1;jettySize=auto;orthogonalLoop=1;strokeColor=#000000;strokeWidth=3;fontSize=32;fontColor=#000000;" edge="1" parent="1"><mxGeometry relative="1" as="geometry"><mxPoint x="590" y="400" as="targetPoint"/><mxPoint x="530" y="400" as="sourcePoint"/></mxGeometry></mxCell><mxCell id="20" value="Compiles and &quot;installs&quot; a package.&amp;nbsp;" style="text;html=1;strokeColor=none;fillColor=none;align=left;verticalAlign=middle;whiteSpace=wrap;rounded=0;shadow=0;labelBackgroundColor=none;fontSize=16;fontColor=#000000;" vertex="1" parent="1"><mxGeometry x="600" y="375" width="240" height="50" as="geometry"/></mxCell><mxCell id="21" value="go get" style="rounded=0;whiteSpace=wrap;html=1;shadow=0;labelBackgroundColor=none;strokeColor=#080808;strokeWidth=2;fillColor=#ffffff;fontSize=32;fontColor=#000000;align=center;flipV=1;" vertex="1" parent="1"><mxGeometry x="330" y="450" width="200" height="60" as="geometry"/></mxCell><mxCell id="22" style="edgeStyle=orthogonalEdgeStyle;rounded=0;html=1;exitX=1;exitY=0.5;startArrow=none;startFill=0;endArrow=classic;endFill=1;jettySize=auto;orthogonalLoop=1;strokeColor=#000000;strokeWidth=3;fontSize=32;fontColor=#000000;" edge="1" parent="1"><mxGeometry relative="1" as="geometry"><mxPoint x="590" y="480" as="targetPoint"/><mxPoint x="530" y="480" as="sourcePoint"/></mxGeometry></mxCell><mxCell id="23" value="Downloads the raw source code of someone else's package" style="text;html=1;strokeColor=none;fillColor=none;align=left;verticalAlign=middle;whiteSpace=wrap;rounded=0;shadow=0;labelBackgroundColor=none;fontSize=16;fontColor=#000000;" vertex="1" parent="1"><mxGeometry x="600" y="455" width="240" height="50" as="geometry"/></mxCell><mxCell id="24" style="edgeStyle=orthogonalEdgeStyle;rounded=0;html=1;exitX=1;exitY=0.5;startArrow=none;startFill=0;endArrow=classic;endFill=1;jettySize=auto;orthogonalLoop=1;strokeColor=#000000;strokeWidth=3;fontSize=32;fontColor=#000000;" edge="1" parent="1"><mxGeometry relative="1" as="geometry"><mxPoint x="590" y="560" as="targetPoint"/><mxPoint x="530" y="560" as="sourcePoint"/></mxGeometry></mxCell><mxCell id="25" value="Runs any tests associated with the current project" style="text;html=1;strokeColor=none;fillColor=none;align=left;verticalAlign=middle;whiteSpace=wrap;rounded=0;shadow=0;labelBackgroundColor=none;fontSize=16;fontColor=#000000;" vertex="1" parent="1"><mxGeometry x="600" y="535" width="240" height="50" as="geometry"/></mxCell><mxCell id="26" style="edgeStyle=orthogonalEdgeStyle;rounded=0;html=1;exitX=0.5;exitY=1;entryX=0.5;entryY=1;startArrow=none;startFill=0;endArrow=classic;endFill=1;jettySize=auto;orthogonalLoop=1;strokeColor=#000000;strokeWidth=3;fontSize=16;fontColor=#000000;" edge="1" parent="1" source="25" target="25"><mxGeometry relative="1" as="geometry"/></mxCell><mxCell id="27" value="How do we run the code in our project?" style="rounded=0;whiteSpace=wrap;html=1;shadow=0;labelBackgroundColor=none;strokeColor=#6c8ebf;strokeWidth=2;fillColor=#dae8fc;fontSize=22;fontColor=#000000;align=center;" vertex="1" parent="1"><mxGeometry x="20" y="85" width="210" height="65" as="geometry"/></mxCell></root></mxGraphModel></diagram><diagram id="559fbc07-4cba-9872-8ab0-7d9b622330fa" name="007 - code"><mxGraphModel dx="990" dy="431" grid="1" gridSize="10" guides="1" tooltips="1" connect="1" arrows="1" fold="1" page="1" pageScale="1" pageWidth="1100" pageHeight="850" background="#ffffff" math="0" shadow="0"><root><mxCell id="0"/><mxCell id="1" parent="0"/><mxCell id="11" value="" style="rounded=0;whiteSpace=wrap;html=1;shadow=0;labelBackgroundColor=none;strokeColor=#9673a6;strokeWidth=2;fillColor=#e1d5e7;fontSize=32;fontColor=#000000;align=left;" vertex="1" parent="1"><mxGeometry x="610" y="319" width="180" height="170" as="geometry"/></mxCell><mxCell id="10" value="" style="rounded=0;whiteSpace=wrap;html=1;shadow=0;labelBackgroundColor=none;strokeColor=#82b366;strokeWidth=2;fillColor=#d5e8d4;fontSize=32;fontColor=#000000;align=left;" vertex="1" parent="1"><mxGeometry x="610" y="189" width="180" height="130" as="geometry"/></mxCell><mxCell id="9" value="" style="rounded=0;whiteSpace=wrap;html=1;shadow=0;labelBackgroundColor=none;strokeColor=#6c8ebf;strokeWidth=2;fillColor=#dae8fc;fontSize=32;fontColor=#000000;align=left;" vertex="1" parent="1"><mxGeometry x="610" y="99" width="180" height="90" as="geometry"/></mxCell><mxCell id="5" value="" style="rounded=0;whiteSpace=wrap;html=1;shadow=0;labelBackgroundColor=none;strokeColor=#9673a6;strokeWidth=2;fillColor=#e1d5e7;fontSize=32;fontColor=#000000;align=left;" vertex="1" parent="1"><mxGeometry x="250" y="319" width="360" height="170" as="geometry"/></mxCell><mxCell id="4" value="" style="rounded=0;whiteSpace=wrap;html=1;shadow=0;labelBackgroundColor=none;strokeColor=#82b366;strokeWidth=2;fillColor=#d5e8d4;fontSize=32;fontColor=#000000;align=left;" vertex="1" parent="1"><mxGeometry x="250" y="189" width="360" height="130" as="geometry"/></mxCell><mxCell id="3" value="" style="rounded=0;whiteSpace=wrap;html=1;shadow=0;labelBackgroundColor=none;strokeColor=#6c8ebf;strokeWidth=2;fillColor=#dae8fc;fontSize=32;fontColor=#000000;align=left;" vertex="1" parent="1"><mxGeometry x="250" y="99" width="360" height="90" as="geometry"/></mxCell><mxCell id="2" value="&lt;div&gt;package main&lt;/div&gt;&lt;div&gt;&lt;br&gt;&lt;/div&gt;&lt;div&gt;&lt;br&gt;&lt;/div&gt;&lt;div&gt;import &quot;fmt&quot;&lt;/div&gt;&lt;div&gt;&lt;br&gt;&lt;/div&gt;&lt;div&gt;&lt;br&gt;&lt;/div&gt;&lt;div&gt;func main() {&lt;/div&gt;&lt;div&gt;&amp;nbsp; fmt.Println(&quot;hi there&quot;)&lt;/div&gt;&lt;div&gt;}&lt;/div&gt;" style="text;html=1;strokeColor=none;fillColor=none;align=left;verticalAlign=middle;whiteSpace=wrap;rounded=0;shadow=0;labelBackgroundColor=none;fontSize=32;fontColor=#000000;" vertex="1" parent="1"><mxGeometry x="266" y="108" width="334" height="370" as="geometry"/></mxCell><mxCell id="6" value="&lt;i&gt;Package declaration&lt;/i&gt;" style="text;html=1;strokeColor=none;fillColor=none;align=left;verticalAlign=middle;whiteSpace=wrap;rounded=0;shadow=0;labelBackgroundColor=none;fontSize=16;fontColor=#000000;" vertex="1" parent="1"><mxGeometry x="620" y="134" width="40" height="20" as="geometry"/></mxCell><mxCell id="7" value="&lt;i&gt;Import other packages that we need&lt;/i&gt;" style="text;html=1;strokeColor=none;fillColor=none;align=left;verticalAlign=middle;whiteSpace=wrap;rounded=0;shadow=0;labelBackgroundColor=none;fontSize=16;fontColor=#000000;" vertex="1" parent="1"><mxGeometry x="620" y="222" width="130" height="65" as="geometry"/></mxCell><mxCell id="8" value="&lt;i&gt;Declare functions, tell Go to do things&lt;/i&gt;" style="text;html=1;strokeColor=none;fillColor=none;align=left;verticalAlign=middle;whiteSpace=wrap;rounded=0;shadow=0;labelBackgroundColor=none;fontSize=16;fontColor=#000000;" vertex="1" parent="1"><mxGeometry x="620" y="372" width="160" height="65" as="geometry"/></mxCell><mxCell id="12" value="How is the main.go file organized?" style="rounded=0;whiteSpace=wrap;html=1;shadow=0;labelBackgroundColor=none;strokeColor=#d79b00;strokeWidth=2;fillColor=#ffe6cc;fontSize=22;fontColor=#000000;align=center;" vertex="1" parent="1"><mxGeometry x="50" y="89" width="160" height="91" as="geometry"/></mxCell></root></mxGraphModel></diagram><diagram id="d4a5fe6d-05aa-a858-78bc-d4276fcc7703" name="008 - what package"><mxGraphModel dx="825" dy="359" grid="1" gridSize="10" guides="1" tooltips="1" connect="1" arrows="1" fold="1" page="1" pageScale="1" pageWidth="1100" pageHeight="850" background="#ffffff" math="0" shadow="0"><root><mxCell id="0"/><mxCell id="1" parent="0"/><mxCell id="2" value="What does '&lt;i&gt;package main&lt;/i&gt;' mean?" style="rounded=0;whiteSpace=wrap;html=1;shadow=0;labelBackgroundColor=none;strokeColor=#82b366;strokeWidth=2;fillColor=#d5e8d4;fontSize=22;fontColor=#000000;align=center;" vertex="1" parent="1"><mxGeometry x="230" y="80" width="170" height="80" as="geometry"/></mxCell><mxCell id="5" value="Package" style="rounded=0;whiteSpace=wrap;html=1;shadow=0;labelBackgroundColor=none;strokeColor=#080808;strokeWidth=2;fillColor=#ffffff;fontSize=40;fontColor=#000000;align=center;" vertex="1" parent="1"><mxGeometry x="210" y="230" width="210" height="60" as="geometry"/></mxCell><mxCell id="6" value="==" style="text;html=1;strokeColor=none;fillColor=none;align=center;verticalAlign=middle;whiteSpace=wrap;rounded=0;shadow=0;labelBackgroundColor=none;fontSize=40;fontColor=#000000;" vertex="1" parent="1"><mxGeometry x="440" y="250" width="40" height="20" as="geometry"/></mxCell><mxCell id="7" value="Project" style="rounded=0;whiteSpace=wrap;html=1;shadow=0;labelBackgroundColor=none;strokeColor=#080808;strokeWidth=2;fillColor=#ffffff;fontSize=40;fontColor=#000000;align=center;" vertex="1" parent="1"><mxGeometry x="500" y="230" width="210" height="60" as="geometry"/></mxCell><mxCell id="12" value="==" style="text;html=1;strokeColor=none;fillColor=none;align=center;verticalAlign=middle;whiteSpace=wrap;rounded=0;shadow=0;labelBackgroundColor=none;fontSize=40;fontColor=#000000;" vertex="1" parent="1"><mxGeometry x="726" y="250" width="40" height="20" as="geometry"/></mxCell><mxCell id="13" value="Workspace" style="rounded=0;whiteSpace=wrap;html=1;shadow=0;labelBackgroundColor=none;strokeColor=#080808;strokeWidth=2;fillColor=#ffffff;fontSize=40;fontColor=#000000;align=center;" vertex="1" parent="1"><mxGeometry x="786" y="230" width="210" height="60" as="geometry"/></mxCell></root></mxGraphModel></diagram><diagram id="b498db92-3297-0a48-6282-415aff389329" name="014 - packages"><mxGraphModel dx="990" dy="431" grid="1" gridSize="10" guides="1" tooltips="1" connect="1" arrows="1" fold="1" page="1" pageScale="1" pageWidth="1100" pageHeight="850" background="#ffffff" math="0" shadow="0"><root><mxCell id="0"/><mxCell id="1" parent="0"/><mxCell id="5" value="" style="rounded=0;whiteSpace=wrap;html=1;shadow=0;labelBackgroundColor=none;strokeColor=#080808;strokeWidth=2;fillColor=#ffffff;fontSize=24;fontColor=#000000;align=center;" vertex="1" parent="1"><mxGeometry x="380" y="170" width="370" height="340" as="geometry"/></mxCell><mxCell id="2" value="" style="rounded=0;whiteSpace=wrap;html=1;shadow=0;labelBackgroundColor=none;strokeColor=#080808;strokeWidth=2;fillColor=#ffffff;fontSize=24;fontColor=#000000;align=center;" vertex="1" parent="1"><mxGeometry x="400" y="216" width="150" height="120" as="geometry"/></mxCell><mxCell id="6" value="Package Main" style="text;html=1;strokeColor=none;fillColor=none;align=center;verticalAlign=middle;whiteSpace=wrap;rounded=0;shadow=0;labelBackgroundColor=none;fontSize=32;fontColor=#000000;" vertex="1" parent="1"><mxGeometry x="445" y="130" width="230" height="30" as="geometry"/></mxCell><mxCell id="8" value="What does '&lt;i&gt;package main&lt;/i&gt;' mean?" style="rounded=0;whiteSpace=wrap;html=1;shadow=0;labelBackgroundColor=none;strokeColor=#82b366;strokeWidth=2;fillColor=#d5e8d4;fontSize=22;fontColor=#000000;align=center;" vertex="1" parent="1"><mxGeometry x="140" y="145" width="170" height="80" as="geometry"/></mxCell><mxCell id="9" value="main.go" style="text;html=1;strokeColor=none;fillColor=none;align=center;verticalAlign=middle;whiteSpace=wrap;rounded=0;shadow=0;labelBackgroundColor=none;fontSize=22;fontColor=#000000;" vertex="1" parent="1"><mxGeometry x="420" y="190" width="40" height="20" as="geometry"/></mxCell><mxCell id="10" value="&lt;div&gt;&lt;div&gt;&lt;span&gt;package&lt;/span&gt; main&lt;/div&gt;&lt;br&gt;&lt;div&gt;&lt;span&gt;import&lt;/span&gt;&lt;span&gt;&quot;fmt&quot;&lt;/span&gt;&lt;/div&gt;&lt;br&gt;&lt;div&gt;&lt;span&gt;func&lt;/span&gt;&lt;span&gt;main&lt;/span&gt;() {&lt;/div&gt;&lt;div&gt;&amp;nbsp;&amp;nbsp;&amp;nbsp;&amp;nbsp;fmt.&lt;span&gt;Println&lt;/span&gt;(&lt;span&gt;&quot;Hi there!&quot;&lt;/span&gt;)&lt;/div&gt;&lt;div&gt;}&lt;/div&gt;&lt;br&gt;&lt;/div&gt;" style="text;html=1;strokeColor=none;fillColor=none;align=left;verticalAlign=middle;whiteSpace=wrap;rounded=0;shadow=0;labelBackgroundColor=none;fontSize=12;fontColor=#000000;" vertex="1" parent="1"><mxGeometry x="405" y="223" width="130" height="116" as="geometry"/></mxCell><mxCell id="11" value="" style="rounded=0;whiteSpace=wrap;html=1;shadow=0;labelBackgroundColor=none;strokeColor=#080808;strokeWidth=2;fillColor=#ffffff;fontSize=24;fontColor=#000000;align=center;" vertex="1" parent="1"><mxGeometry x="580" y="216" width="150" height="120" as="geometry"/></mxCell><mxCell id="12" value="&lt;div style=&quot;text-align: left&quot;&gt;&lt;span&gt;support.go&lt;/span&gt;&lt;/div&gt;" style="text;html=1;strokeColor=none;fillColor=none;align=center;verticalAlign=middle;whiteSpace=wrap;rounded=0;shadow=0;labelBackgroundColor=none;fontSize=22;fontColor=#000000;" vertex="1" parent="1"><mxGeometry x="585" y="190" width="110" height="20" as="geometry"/></mxCell><mxCell id="13" value="&lt;div&gt;&lt;span&gt;package&lt;/span&gt; main&lt;/div&gt;&lt;div&gt;&lt;br&gt;&lt;/div&gt;&lt;div&gt;&lt;span&gt;func&amp;nbsp;&lt;/span&gt;&lt;span&gt;support&lt;/span&gt;() {&lt;/div&gt;&lt;div&gt;&amp;nbsp;&amp;nbsp;&amp;nbsp;&amp;nbsp;fmt.&lt;span&gt;Println&lt;/span&gt;(&lt;span&gt;&quot;I help!&quot;&lt;/span&gt;)&lt;/div&gt;&lt;div&gt;}&lt;/div&gt;&lt;br&gt;" style="text;html=1;strokeColor=none;fillColor=none;align=left;verticalAlign=middle;whiteSpace=wrap;rounded=0;shadow=0;labelBackgroundColor=none;fontSize=12;fontColor=#000000;" vertex="1" parent="1"><mxGeometry x="583" y="214" width="185" height="92" as="geometry"/></mxCell><mxCell id="14" value="" style="rounded=0;whiteSpace=wrap;html=1;shadow=0;labelBackgroundColor=none;strokeColor=#080808;strokeWidth=2;fillColor=#ffffff;fontSize=24;fontColor=#000000;align=center;" vertex="1" parent="1"><mxGeometry x="400" y="377" width="150" height="120" as="geometry"/></mxCell><mxCell id="15" value="helper.go" style="text;html=1;strokeColor=none;fillColor=none;align=center;verticalAlign=middle;whiteSpace=wrap;rounded=0;shadow=0;labelBackgroundColor=none;fontSize=22;fontColor=#000000;" vertex="1" parent="1"><mxGeometry x="424" y="351" width="40" height="20" as="geometry"/></mxCell><mxCell id="16" value="&lt;div&gt;&lt;span&gt;package&lt;/span&gt; main&lt;/div&gt;&lt;br&gt;&lt;div&gt;&lt;span&gt;func&amp;nbsp;&lt;/span&gt;&lt;span&gt;help&lt;/span&gt;() {&lt;/div&gt;&lt;div&gt;&amp;nbsp;&amp;nbsp;&amp;nbsp;&amp;nbsp;fmt.&lt;span&gt;Println&lt;/span&gt;(&lt;span&gt;&quot;I help too&quot;&lt;/span&gt;)&lt;/div&gt;&lt;div&gt;}&lt;/div&gt;&lt;br&gt;" style="text;html=1;strokeColor=none;fillColor=none;align=left;verticalAlign=middle;whiteSpace=wrap;rounded=0;shadow=0;labelBackgroundColor=none;fontSize=12;fontColor=#000000;" vertex="1" parent="1"><mxGeometry x="405" y="384" width="175" height="86" as="geometry"/></mxCell></root></mxGraphModel></diagram><diagram id="670da346-e052-ba0b-4275-e6d954c4abcf" name="012 - types of packages"><mxGraphModel dx="825" dy="359" grid="1" gridSize="10" guides="1" tooltips="1" connect="1" arrows="1" fold="1" page="1" pageScale="1" pageWidth="1100" pageHeight="850" background="#ffffff" math="0" shadow="0"><root><mxCell id="0"/><mxCell id="1" parent="0"/><mxCell id="2" value="Executable" style="rounded=0;whiteSpace=wrap;html=1;shadow=0;labelBackgroundColor=none;strokeColor=#080808;strokeWidth=2;fillColor=#ffffff;fontSize=24;fontColor=#000000;align=center;" vertex="1" parent="1"><mxGeometry x="360" y="225" width="160" height="60" as="geometry"/></mxCell><mxCell id="3" value="Reusable" style="rounded=0;whiteSpace=wrap;html=1;shadow=0;labelBackgroundColor=none;strokeColor=#080808;strokeWidth=2;fillColor=#ffffff;fontSize=24;fontColor=#000000;align=center;" vertex="1" parent="1"><mxGeometry x="600" y="225" width="160" height="60" as="geometry"/></mxCell><mxCell id="4" value="Generates a file that we can run" style="text;html=1;strokeColor=none;fillColor=none;align=center;verticalAlign=middle;whiteSpace=wrap;rounded=0;shadow=0;labelBackgroundColor=none;fontSize=14;fontColor=#000000;" vertex="1" parent="1"><mxGeometry x="385" y="285" width="110" height="40" as="geometry"/></mxCell><mxCell id="5" value="Types of Packages" style="text;html=1;strokeColor=none;fillColor=none;align=center;verticalAlign=middle;whiteSpace=wrap;rounded=0;shadow=0;labelBackgroundColor=none;fontSize=24;fontColor=#000000;" vertex="1" parent="1"><mxGeometry x="430" y="165" width="250" height="40" as="geometry"/></mxCell><mxCell id="6" value="Code used as 'helpers'. &amp;nbsp;Good place to put reusable logic" style="text;html=1;strokeColor=none;fillColor=none;align=center;verticalAlign=middle;whiteSpace=wrap;rounded=0;shadow=0;labelBackgroundColor=none;fontSize=14;fontColor=#000000;" vertex="1" parent="1"><mxGeometry x="588" y="295" width="185" height="40" as="geometry"/></mxCell><mxCell id="7" value="What does '&lt;i&gt;package main&lt;/i&gt;' mean?" style="rounded=0;whiteSpace=wrap;html=1;shadow=0;labelBackgroundColor=none;strokeColor=#82b366;strokeWidth=2;fillColor=#d5e8d4;fontSize=22;fontColor=#000000;align=center;" vertex="1" parent="1"><mxGeometry x="150" y="80" width="170" height="80" as="geometry"/></mxCell></root></mxGraphModel></diagram><diagram id="388d159f-a7f1-89bb-1443-52fc08ea096f" name="013 - compiling"><mxGraphModel dx="825" dy="359" grid="1" gridSize="10" guides="1" tooltips="1" connect="1" arrows="1" fold="1" page="1" pageScale="1" pageWidth="1100" pageHeight="850" background="#ffffff" math="0" shadow="0"><root><mxCell id="0"/><mxCell id="1" parent="0"/><mxCell id="10" style="edgeStyle=orthogonalEdgeStyle;rounded=0;html=1;exitX=0.5;exitY=1;entryX=0.5;entryY=0;startArrow=none;startFill=0;endArrow=classic;endFill=1;jettySize=auto;orthogonalLoop=1;strokeColor=#000000;strokeWidth=3;fontSize=24;fontColor=#000000;" edge="1" parent="1" source="8" target="9"><mxGeometry relative="1" as="geometry"/></mxCell><mxCell id="8" value="package main" style="rounded=0;whiteSpace=wrap;html=1;shadow=0;labelBackgroundColor=none;strokeColor=#080808;strokeWidth=2;fillColor=#ffffff;fontSize=24;fontColor=#000000;align=center;" vertex="1" parent="1"><mxGeometry x="460" y="90" width="180" height="60" as="geometry"/></mxCell><mxCell id="12" style="edgeStyle=orthogonalEdgeStyle;rounded=0;html=1;exitX=0.5;exitY=1;entryX=0.5;entryY=0;startArrow=none;startFill=0;endArrow=classic;endFill=1;jettySize=auto;orthogonalLoop=1;strokeColor=#000000;strokeWidth=3;fontSize=24;fontColor=#000000;" edge="1" parent="1" source="9" target="11"><mxGeometry relative="1" as="geometry"/></mxCell><mxCell id="9" value="go build" style="rounded=0;whiteSpace=wrap;html=1;shadow=0;labelBackgroundColor=none;strokeColor=#080808;strokeWidth=2;fillColor=#ffffff;fontSize=24;fontColor=#000000;align=center;" vertex="1" parent="1"><mxGeometry x="415" y="200" width="270" height="90" as="geometry"/></mxCell><mxCell id="11" value="main.exe" style="rounded=0;whiteSpace=wrap;html=1;shadow=0;labelBackgroundColor=none;strokeColor=#080808;strokeWidth=2;fillColor=#ffffff;fontSize=24;fontColor=#000000;align=center;" vertex="1" parent="1"><mxGeometry x="490" y="350" width="120" height="60" as="geometry"/></mxCell><mxCell id="13" value="If we ran this file, the function named 'main' would be automatically ran" style="text;html=1;strokeColor=none;fillColor=none;align=left;verticalAlign=middle;whiteSpace=wrap;rounded=0;shadow=0;labelBackgroundColor=none;fontSize=12;fontColor=#000000;fontStyle=2" vertex="1" parent="1"><mxGeometry x="620" y="370" width="150" height="20" as="geometry"/></mxCell><mxCell id="14" value="What does '&lt;i&gt;package main&lt;/i&gt;' mean?" style="rounded=0;whiteSpace=wrap;html=1;shadow=0;labelBackgroundColor=none;strokeColor=#82b366;strokeWidth=2;fillColor=#d5e8d4;fontSize=22;fontColor=#000000;align=center;" vertex="1" parent="1"><mxGeometry x="190" y="90" width="170" height="80" as="geometry"/></mxCell></root></mxGraphModel></diagram><diagram name="013.5 - reusable" id="355dec48-40f4-f822-5ed5-1f4a557ffd5c"><mxGraphModel dx="825" dy="359" grid="1" gridSize="10" guides="1" tooltips="1" connect="1" arrows="1" fold="1" page="1" pageScale="1" pageWidth="1100" pageHeight="850" background="#ffffff" math="0" shadow="0"><root><mxCell id="0"/><mxCell id="1" parent="0"/><mxCell id="2" style="edgeStyle=orthogonalEdgeStyle;rounded=0;html=1;exitX=0.5;exitY=1;entryX=0.5;entryY=0;startArrow=none;startFill=0;endArrow=classic;endFill=1;jettySize=auto;orthogonalLoop=1;strokeColor=#000000;strokeWidth=3;fontSize=24;fontColor=#000000;" edge="1" parent="1" source="3" target="5"><mxGeometry relative="1" as="geometry"/></mxCell><mxCell id="3" value="package blahblah" style="rounded=0;whiteSpace=wrap;html=1;shadow=0;labelBackgroundColor=none;strokeColor=#080808;strokeWidth=2;fillColor=#ffffff;fontSize=24;fontColor=#000000;align=center;" vertex="1" parent="1"><mxGeometry x="430" y="90" width="240" height="60" as="geometry"/></mxCell><mxCell id="4" style="edgeStyle=orthogonalEdgeStyle;rounded=0;html=1;exitX=0.5;exitY=1;entryX=0.5;entryY=0;startArrow=none;startFill=0;endArrow=classic;endFill=1;jettySize=auto;orthogonalLoop=1;strokeColor=#000000;strokeWidth=3;fontSize=24;fontColor=#000000;" edge="1" parent="1" source="5" target="6"><mxGeometry relative="1" as="geometry"/></mxCell><mxCell id="5" value="go build" style="rounded=0;whiteSpace=wrap;html=1;shadow=0;labelBackgroundColor=none;strokeColor=#080808;strokeWidth=2;fillColor=#ffffff;fontSize=24;fontColor=#000000;align=center;" vertex="1" parent="1"><mxGeometry x="415" y="200" width="270" height="90" as="geometry"/></mxCell><mxCell id="6" value="nothing!" style="rounded=0;whiteSpace=wrap;html=1;shadow=0;labelBackgroundColor=none;strokeColor=#080808;strokeWidth=2;fillColor=#ffffff;fontSize=24;fontColor=#000000;align=center;" vertex="1" parent="1"><mxGeometry x="490" y="350" width="120" height="60" as="geometry"/></mxCell><mxCell id="7" value="Compiling a non-main package gives" style="text;html=1;strokeColor=none;fillColor=none;align=left;verticalAlign=middle;whiteSpace=wrap;rounded=0;shadow=0;labelBackgroundColor=none;fontSize=12;fontColor=#000000;fontStyle=2" vertex="1" parent="1"><mxGeometry x="620" y="370" width="150" height="20" as="geometry"/></mxCell><mxCell id="8" value="What does '&lt;i&gt;package main&lt;/i&gt;' mean?" style="rounded=0;whiteSpace=wrap;html=1;shadow=0;labelBackgroundColor=none;strokeColor=#82b366;strokeWidth=2;fillColor=#d5e8d4;fontSize=22;fontColor=#000000;align=center;" vertex="1" parent="1"><mxGeometry x="170" y="80" width="170" height="80" as="geometry"/></mxCell></root></mxGraphModel></diagram><diagram id="5398b9ee-e8bc-1125-e166-5da6ed2bf329" name="008 - packages"><mxGraphModel dx="990" dy="431" grid="1" gridSize="10" guides="1" tooltips="1" connect="1" arrows="1" fold="1" page="1" pageScale="1" pageWidth="1100" pageHeight="850" background="#ffffff" math="0" shadow="0"><root><mxCell id="0"/><mxCell id="1" parent="0"/><mxCell id="27" style="edgeStyle=orthogonalEdgeStyle;rounded=0;html=1;exitX=1;exitY=0.5;startArrow=none;startFill=0;endArrow=classic;endFill=1;jettySize=auto;orthogonalLoop=1;strokeColor=#000000;strokeWidth=3;fontSize=22;fontColor=#000000;" edge="1" parent="1" source="23"><mxGeometry relative="1" as="geometry"><mxPoint x="550" y="230" as="targetPoint"/></mxGeometry></mxCell><mxCell id="23" value="package main" style="rounded=0;whiteSpace=wrap;html=1;shadow=0;labelBackgroundColor=none;strokeColor=#6c8ebf;strokeWidth=2;fillColor=#dae8fc;fontSize=22;fontColor=#000000;align=center;flipV=1;" vertex="1" parent="1"><mxGeometry x="280" y="200" width="210" height="60" as="geometry"/></mxCell><mxCell id="25" value="package calculator" style="rounded=0;whiteSpace=wrap;html=1;shadow=0;labelBackgroundColor=none;strokeColor=#080808;strokeWidth=2;fillColor=#ffffff;fontSize=22;fontColor=#000000;align=center;flipV=1;" vertex="1" parent="1"><mxGeometry x="280" y="330" width="210" height="60" as="geometry"/></mxCell><mxCell id="26" value="package uploader" style="rounded=0;whiteSpace=wrap;html=1;shadow=0;labelBackgroundColor=none;strokeColor=#080808;strokeWidth=2;fillColor=#ffffff;fontSize=22;fontColor=#000000;align=center;flipV=1;" vertex="1" parent="1"><mxGeometry x="280" y="470" width="210" height="60" as="geometry"/></mxCell><mxCell id="28" value="Defines a package that can be compiled and then *executed*. &lt;b&gt;Must have a func called 'main'&lt;/b&gt;" style="text;html=1;strokeColor=none;fillColor=none;align=left;verticalAlign=middle;whiteSpace=wrap;rounded=0;shadow=0;labelBackgroundColor=none;fontSize=22;fontColor=#000000;" vertex="1" parent="1"><mxGeometry x="560" y="190" width="330" height="80" as="geometry"/></mxCell><mxCell id="29" style="edgeStyle=orthogonalEdgeStyle;rounded=0;html=1;exitX=1;exitY=0.5;startArrow=none;startFill=0;endArrow=classic;endFill=1;jettySize=auto;orthogonalLoop=1;strokeColor=#000000;strokeWidth=3;fontSize=22;fontColor=#000000;" edge="1" parent="1"><mxGeometry relative="1" as="geometry"><mxPoint x="550" y="360" as="targetPoint"/><mxPoint x="490" y="360" as="sourcePoint"/></mxGeometry></mxCell><mxCell id="30" value="Defines a package that can be used as a dependency (helper code)" style="text;html=1;strokeColor=none;fillColor=none;align=left;verticalAlign=middle;whiteSpace=wrap;rounded=0;shadow=0;labelBackgroundColor=none;fontSize=22;fontColor=#000000;" vertex="1" parent="1"><mxGeometry x="560" y="320" width="350" height="80" as="geometry"/></mxCell><mxCell id="33" style="edgeStyle=orthogonalEdgeStyle;rounded=0;html=1;exitX=1;exitY=0.5;startArrow=none;startFill=0;endArrow=classic;endFill=1;jettySize=auto;orthogonalLoop=1;strokeColor=#000000;strokeWidth=3;fontSize=22;fontColor=#000000;" edge="1" parent="1"><mxGeometry relative="1" as="geometry"><mxPoint x="550" y="500" as="targetPoint"/><mxPoint x="490" y="500" as="sourcePoint"/></mxGeometry></mxCell><mxCell id="34" value="Defines a package that can be used as a dependency (helper code)" style="text;html=1;strokeColor=none;fillColor=none;align=left;verticalAlign=middle;whiteSpace=wrap;rounded=0;shadow=0;labelBackgroundColor=none;fontSize=22;fontColor=#000000;" vertex="1" parent="1"><mxGeometry x="560" y="460" width="350" height="80" as="geometry"/></mxCell><mxCell id="35" value="&quot;main&quot; is special" style="text;html=1;strokeColor=none;fillColor=none;align=center;verticalAlign=middle;whiteSpace=wrap;rounded=0;shadow=0;labelBackgroundColor=none;fontSize=16;fontColor=#000000;fontStyle=2" vertex="1" parent="1"><mxGeometry x="300" y="248" width="170" height="50" as="geometry"/></mxCell><mxCell id="36" value="" style="shape=curlyBracket;whiteSpace=wrap;html=1;rounded=1;shadow=0;labelBackgroundColor=none;strokeColor=#080808;strokeWidth=2;fillColor=#ffffff;fontSize=24;fontColor=#000000;align=center;" vertex="1" parent="1"><mxGeometry x="220" y="200" width="50" height="60" as="geometry"/></mxCell><mxCell id="37" value="Executable package" style="text;html=1;strokeColor=none;fillColor=none;align=right;verticalAlign=middle;whiteSpace=wrap;rounded=0;shadow=0;labelBackgroundColor=none;fontSize=14;fontColor=#000000;" vertex="1" parent="1"><mxGeometry x="180" y="220" width="40" height="20" as="geometry"/></mxCell><mxCell id="38" value="" style="shape=curlyBracket;whiteSpace=wrap;html=1;rounded=1;shadow=0;labelBackgroundColor=none;strokeColor=#080808;strokeWidth=2;fillColor=#ffffff;fontSize=24;fontColor=#000000;align=center;" vertex="1" parent="1"><mxGeometry x="220" y="330" width="50" height="200" as="geometry"/></mxCell><mxCell id="39" value="Reusable package" style="text;html=1;strokeColor=none;fillColor=none;align=right;verticalAlign=middle;whiteSpace=wrap;rounded=0;shadow=0;labelBackgroundColor=none;fontSize=14;fontColor=#000000;" vertex="1" parent="1"><mxGeometry x="130" y="415" width="90" height="30" as="geometry"/></mxCell><mxCell id="40" style="edgeStyle=orthogonalEdgeStyle;rounded=0;html=1;exitX=0.5;exitY=0;entryX=0.5;entryY=0;startArrow=none;startFill=0;endArrow=classic;endFill=1;jettySize=auto;orthogonalLoop=1;strokeColor=#000000;strokeWidth=3;fontSize=14;fontColor=#000000;" edge="1" parent="1" source="39" target="39"><mxGeometry relative="1" as="geometry"/></mxCell><mxCell id="41" value="What does '&lt;i&gt;package main&lt;/i&gt;' mean?" style="rounded=0;whiteSpace=wrap;html=1;shadow=0;labelBackgroundColor=none;strokeColor=#82b366;strokeWidth=2;fillColor=#d5e8d4;fontSize=12;fontColor=#000000;align=center;" vertex="1" parent="1"><mxGeometry x="90" y="140" width="200" height="30" as="geometry"/></mxCell></root></mxGraphModel></diagram><diagram id="2a803a9f-bdf3-56a2-a904-7053661d43a9" name="009 - imports"><mxGraphModel dx="825" dy="359" grid="1" gridSize="10" guides="1" tooltips="1" connect="1" arrows="1" fold="1" page="1" pageScale="1" pageWidth="1100" pageHeight="850" background="#ffffff" math="0" shadow="0"><root><mxCell id="0"/><mxCell id="1" parent="0"/><mxCell id="4" style="edgeStyle=orthogonalEdgeStyle;rounded=0;html=1;exitX=0.5;exitY=1;startArrow=none;startFill=0;endArrow=classic;endFill=1;jettySize=auto;orthogonalLoop=1;strokeColor=#000000;strokeWidth=3;fontSize=22;fontColor=#000000;" edge="1" parent="1" source="2" target="3"><mxGeometry relative="1" as="geometry"/></mxCell><mxCell id="2" value="main" style="rounded=0;whiteSpace=wrap;html=1;shadow=0;labelBackgroundColor=none;strokeColor=#080808;strokeWidth=2;fillColor=#ffffff;fontSize=22;fontColor=#000000;align=center;" vertex="1" parent="1"><mxGeometry x="470" y="180" width="120" height="60" as="geometry"/></mxCell><mxCell id="3" value="fmt" style="rounded=0;whiteSpace=wrap;html=1;shadow=0;labelBackgroundColor=none;strokeColor=#080808;strokeWidth=2;fillColor=#ffffff;fontSize=22;fontColor=#000000;align=center;" vertex="1" parent="1"><mxGeometry x="470" y="300" width="120" height="60" as="geometry"/></mxCell><mxCell id="5" value="What does '&lt;i&gt;import &quot;fmt&quot;&lt;/i&gt;' mean?" style="rounded=0;whiteSpace=wrap;html=1;shadow=0;labelBackgroundColor=none;strokeColor=#b85450;strokeWidth=2;fillColor=#f8cecc;fontSize=12;fontColor=#000000;align=center;" vertex="1" parent="1"><mxGeometry x="190" y="120" width="200" height="40" as="geometry"/></mxCell><mxCell id="6" value="Package from standard lib" style="text;html=1;strokeColor=none;fillColor=none;align=center;verticalAlign=middle;whiteSpace=wrap;rounded=0;shadow=0;labelBackgroundColor=none;fontSize=16;fontColor=#000000;fontStyle=2" vertex="1" parent="1"><mxGeometry x="455" y="370" width="150" height="30" as="geometry"/></mxCell></root></mxGraphModel></diagram><diagram id="0fe378a4-034f-d676-4a65-5b36015b5cc3" name="010 - many imports"><mxGraphModel dx="825" dy="359" grid="1" gridSize="10" guides="1" tooltips="1" connect="1" arrows="1" fold="1" page="1" pageScale="1" pageWidth="1100" pageHeight="850" background="#ffffff" math="0" shadow="0"><root><mxCell id="0"/><mxCell id="1" parent="0"/><mxCell id="5" style="edgeStyle=orthogonalEdgeStyle;rounded=0;html=1;exitX=0.25;exitY=1;entryX=0.5;entryY=0;startArrow=none;startFill=0;endArrow=classic;endFill=1;jettySize=auto;orthogonalLoop=1;strokeColor=#000000;strokeWidth=3;fontSize=22;fontColor=#000000;" edge="1" parent="1" source="2" target="4"><mxGeometry relative="1" as="geometry"/></mxCell><mxCell id="7" style="edgeStyle=orthogonalEdgeStyle;rounded=0;html=1;exitX=0.5;exitY=1;entryX=0.5;entryY=0;startArrow=none;startFill=0;endArrow=classic;endFill=1;jettySize=auto;orthogonalLoop=1;strokeColor=#000000;strokeWidth=3;fontSize=22;fontColor=#000000;" edge="1" parent="1" source="2" target="6"><mxGeometry relative="1" as="geometry"/></mxCell><mxCell id="9" style="edgeStyle=orthogonalEdgeStyle;rounded=0;html=1;exitX=0.75;exitY=1;entryX=0.5;entryY=0;startArrow=none;startFill=0;endArrow=classic;endFill=1;jettySize=auto;orthogonalLoop=1;strokeColor=#000000;strokeWidth=3;fontSize=22;fontColor=#000000;" edge="1" parent="1" source="2" target="8"><mxGeometry relative="1" as="geometry"/></mxCell><mxCell id="2" value="main" style="rounded=0;whiteSpace=wrap;html=1;shadow=0;labelBackgroundColor=none;strokeColor=#080808;strokeWidth=2;fillColor=#ffffff;fontSize=22;fontColor=#000000;align=center;" vertex="1" parent="1"><mxGeometry x="470" y="130" width="120" height="60" as="geometry"/></mxCell><mxCell id="4" value="fmt" style="rounded=0;whiteSpace=wrap;html=1;shadow=0;labelBackgroundColor=none;strokeColor=#080808;strokeWidth=2;fillColor=#ffffff;fontSize=22;fontColor=#000000;align=center;" vertex="1" parent="1"><mxGeometry x="340" y="250" width="120" height="60" as="geometry"/></mxCell><mxCell id="6" value="calculator" style="rounded=0;whiteSpace=wrap;html=1;shadow=0;labelBackgroundColor=none;strokeColor=#080808;strokeWidth=2;fillColor=#ffffff;fontSize=22;fontColor=#000000;align=center;" vertex="1" parent="1"><mxGeometry x="470" y="250" width="120" height="60" as="geometry"/></mxCell><mxCell id="8" value="uploader" style="rounded=0;whiteSpace=wrap;html=1;shadow=0;labelBackgroundColor=none;strokeColor=#080808;strokeWidth=2;fillColor=#ffffff;fontSize=22;fontColor=#000000;align=center;" vertex="1" parent="1"><mxGeometry x="600" y="250" width="120" height="60" as="geometry"/></mxCell><mxCell id="10" value="Standard lib" style="text;html=1;strokeColor=none;fillColor=none;align=center;verticalAlign=middle;whiteSpace=wrap;rounded=0;shadow=0;labelBackgroundColor=none;fontSize=16;fontColor=#000000;fontStyle=2" vertex="1" parent="1"><mxGeometry x="350" y="320" width="100" height="20" as="geometry"/></mxCell><mxCell id="11" value="Reusable package" style="text;html=1;strokeColor=none;fillColor=none;align=center;verticalAlign=middle;whiteSpace=wrap;rounded=0;shadow=0;labelBackgroundColor=none;fontSize=16;fontColor=#000000;fontStyle=2" vertex="1" parent="1"><mxGeometry x="480" y="320" width="100" height="20" as="geometry"/></mxCell><mxCell id="12" value="Reusable package" style="text;html=1;strokeColor=none;fillColor=none;align=center;verticalAlign=middle;whiteSpace=wrap;rounded=0;shadow=0;labelBackgroundColor=none;fontSize=16;fontColor=#000000;fontStyle=2" vertex="1" parent="1"><mxGeometry x="610" y="320" width="100" height="20" as="geometry"/></mxCell><mxCell id="13" value="What does '&lt;i&gt;import &quot;fmt&quot;&lt;/i&gt;' mean?" style="rounded=0;whiteSpace=wrap;html=1;shadow=0;labelBackgroundColor=none;strokeColor=#b85450;strokeWidth=2;fillColor=#f8cecc;fontSize=12;fontColor=#000000;align=center;" vertex="1" parent="1"><mxGeometry x="170" y="70" width="200" height="40" as="geometry"/></mxCell></root></mxGraphModel></diagram><diagram id="21082cd3-08ab-695e-9562-2d82d2679502" name="016 - silos"><mxGraphModel dx="1238" dy="539" grid="1" gridSize="10" guides="1" tooltips="1" connect="1" arrows="1" fold="1" page="1" pageScale="1" pageWidth="1100" pageHeight="850" background="#ffffff" math="0" shadow="0"><root><mxCell id="0"/><mxCell id="1" parent="0"/><mxCell id="12" style="edgeStyle=orthogonalEdgeStyle;rounded=0;html=1;exitX=0;exitY=0.5;entryX=0.5;entryY=0;startArrow=none;startFill=0;endArrow=classic;endFill=1;jettySize=auto;orthogonalLoop=1;strokeColor=#000000;strokeWidth=3;fontSize=70;fontColor=#000000;" edge="1" parent="1" source="2" target="3"><mxGeometry relative="1" as="geometry"/></mxCell><mxCell id="13" style="edgeStyle=orthogonalEdgeStyle;rounded=0;html=1;exitX=0.5;exitY=0;entryX=0.5;entryY=1;startArrow=none;startFill=0;endArrow=classic;endFill=1;jettySize=auto;orthogonalLoop=1;strokeColor=#000000;strokeWidth=3;fontSize=70;fontColor=#000000;" edge="1" parent="1" source="2" target="8"><mxGeometry relative="1" as="geometry"/></mxCell><mxCell id="2" value="main" style="rounded=0;whiteSpace=wrap;html=1;shadow=0;labelBackgroundColor=none;strokeColor=#080808;strokeWidth=2;fillColor=#ffffff;fontSize=32;fontColor=#000000;align=center;" vertex="1" parent="1"><mxGeometry x="480" y="410" width="120" height="60" as="geometry"/></mxCell><mxCell id="3" value="fmt" style="rounded=0;whiteSpace=wrap;html=1;shadow=0;labelBackgroundColor=none;strokeColor=#080808;strokeWidth=2;fillColor=#ffffff;fontSize=32;fontColor=#000000;align=center;" vertex="1" parent="1"><mxGeometry x="340" y="490" width="120" height="60" as="geometry"/></mxCell><mxCell id="4" value="crypto" style="rounded=0;whiteSpace=wrap;html=1;shadow=0;labelBackgroundColor=none;strokeColor=#080808;strokeWidth=2;fillColor=#ffffff;fontSize=32;fontColor=#000000;align=center;" vertex="1" parent="1"><mxGeometry x="640" y="480" width="120" height="60" as="geometry"/></mxCell><mxCell id="5" value="debug" style="rounded=0;whiteSpace=wrap;html=1;shadow=0;labelBackgroundColor=none;strokeColor=#080808;strokeWidth=2;fillColor=#ffffff;fontSize=32;fontColor=#000000;align=center;" vertex="1" parent="1"><mxGeometry x="320" y="310" width="120" height="60" as="geometry"/></mxCell><mxCell id="6" value="encoding" style="rounded=0;whiteSpace=wrap;html=1;shadow=0;labelBackgroundColor=none;strokeColor=#080808;strokeWidth=2;fillColor=#ffffff;fontSize=32;fontColor=#000000;align=center;" vertex="1" parent="1"><mxGeometry x="700" y="330" width="140" height="60" as="geometry"/></mxCell><mxCell id="7" value="io" style="rounded=0;whiteSpace=wrap;html=1;shadow=0;labelBackgroundColor=none;strokeColor=#080808;strokeWidth=2;fillColor=#ffffff;fontSize=32;fontColor=#000000;align=center;" vertex="1" parent="1"><mxGeometry x="520" y="590" width="140" height="60" as="geometry"/></mxCell><mxCell id="8" value="math" style="rounded=0;whiteSpace=wrap;html=1;shadow=0;labelBackgroundColor=none;strokeColor=#080808;strokeWidth=2;fillColor=#ffffff;fontSize=32;fontColor=#000000;align=center;" vertex="1" parent="1"><mxGeometry x="540" y="270" width="140" height="60" as="geometry"/></mxCell><mxCell id="11" value="What does '&lt;i&gt;import &quot;fmt&quot;&lt;/i&gt;' mean?" style="rounded=0;whiteSpace=wrap;html=1;shadow=0;labelBackgroundColor=none;strokeColor=#b85450;strokeWidth=2;fillColor=#f8cecc;fontSize=16;fontColor=#000000;align=center;" vertex="1" parent="1"><mxGeometry x="120" y="220" width="240" height="40" as="geometry"/></mxCell></root></mxGraphModel></diagram><diagram id="37f9a196-1de6-739d-f0b8-e6eec2cfadad" name="015 - func"><mxGraphModel dx="990" dy="431" grid="1" gridSize="10" guides="1" tooltips="1" connect="1" arrows="1" fold="1" page="1" pageScale="1" pageWidth="1100" pageHeight="850" background="#ffffff" math="0" shadow="0"><root><mxCell id="0"/><mxCell id="1" parent="0"/><mxCell id="6" value="" style="rounded=0;whiteSpace=wrap;html=1;shadow=0;labelBackgroundColor=none;strokeColor=#d6b656;strokeWidth=2;fillColor=#fff2cc;fontSize=50;fontColor=#000000;align=left;" vertex="1" parent="1"><mxGeometry x="514" y="370" width="40" height="60" as="geometry"/></mxCell><mxCell id="5" value="" style="rounded=0;whiteSpace=wrap;html=1;shadow=0;labelBackgroundColor=none;strokeColor=#82b366;strokeWidth=2;fillColor=#d5e8d4;fontSize=50;fontColor=#000000;align=left;" vertex="1" parent="1"><mxGeometry x="396" y="370" width="118" height="60" as="geometry"/></mxCell><mxCell id="4" value="" style="rounded=0;whiteSpace=wrap;html=1;shadow=0;labelBackgroundColor=none;strokeColor=#6c8ebf;strokeWidth=2;fillColor=#dae8fc;fontSize=50;fontColor=#000000;align=left;" vertex="1" parent="1"><mxGeometry x="286" y="370" width="110" height="60" as="geometry"/></mxCell><mxCell id="2" value="func main() {&lt;div&gt;&lt;br&gt;&lt;/div&gt;&lt;div&gt;}&lt;/div&gt;" style="text;html=1;strokeColor=none;fillColor=none;align=left;verticalAlign=middle;whiteSpace=wrap;rounded=0;shadow=0;labelBackgroundColor=none;fontSize=50;fontColor=#000000;" vertex="1" parent="1"><mxGeometry x="294" y="400" width="440" height="110" as="geometry"/></mxCell><mxCell id="7" value="" style="rounded=0;whiteSpace=wrap;html=1;shadow=0;labelBackgroundColor=none;strokeColor=#d79b00;strokeWidth=2;fillColor=#ffe6cc;fontSize=50;fontColor=#000000;align=left;" vertex="1" parent="1"><mxGeometry x="335" y="430" width="319" height="60" as="geometry"/></mxCell><mxCell id="10" style="edgeStyle=orthogonalEdgeStyle;rounded=0;html=1;exitX=0.5;exitY=1;entryX=0.5;entryY=0;startArrow=none;startFill=0;endArrow=classic;endFill=1;jettySize=auto;orthogonalLoop=1;strokeColor=#000000;strokeWidth=3;fontSize=16;fontColor=#000000;" edge="1" parent="1" source="9" target="4"><mxGeometry relative="1" as="geometry"/></mxCell><mxCell id="9" value="Tells go we're about to declare a function" style="text;html=1;strokeColor=none;fillColor=none;align=center;verticalAlign=middle;whiteSpace=wrap;rounded=0;shadow=0;labelBackgroundColor=none;fontSize=16;fontColor=#000000;" vertex="1" parent="1"><mxGeometry x="216" y="250" width="119" height="60" as="geometry"/></mxCell><mxCell id="12" style="edgeStyle=orthogonalEdgeStyle;rounded=0;html=1;exitX=0.5;exitY=1;entryX=0.5;entryY=0;startArrow=none;startFill=0;endArrow=classic;endFill=1;jettySize=auto;orthogonalLoop=1;strokeColor=#000000;strokeWidth=3;fontSize=16;fontColor=#000000;" edge="1" parent="1" source="11" target="5"><mxGeometry relative="1" as="geometry"/></mxCell><mxCell id="11" value="Sets the name of the function" style="text;html=1;strokeColor=none;fillColor=none;align=center;verticalAlign=middle;whiteSpace=wrap;rounded=0;shadow=0;labelBackgroundColor=none;fontSize=16;fontColor=#000000;" vertex="1" parent="1"><mxGeometry x="395" y="260" width="119" height="60" as="geometry"/></mxCell><mxCell id="14" style="edgeStyle=orthogonalEdgeStyle;rounded=0;html=1;exitX=0.25;exitY=1;entryX=0.5;entryY=0;startArrow=none;startFill=0;endArrow=classic;endFill=1;jettySize=auto;orthogonalLoop=1;strokeColor=#000000;strokeWidth=3;fontSize=16;fontColor=#000000;" edge="1" parent="1" source="13" target="6"><mxGeometry relative="1" as="geometry"/></mxCell><mxCell id="13" value="List of arguments to pass the function" style="text;html=1;strokeColor=none;fillColor=none;align=center;verticalAlign=middle;whiteSpace=wrap;rounded=0;shadow=0;labelBackgroundColor=none;fontSize=16;fontColor=#000000;" vertex="1" parent="1"><mxGeometry x="574" y="260" width="140" height="60" as="geometry"/></mxCell><mxCell id="17" style="edgeStyle=orthogonalEdgeStyle;rounded=0;html=1;exitX=0;exitY=0.5;entryX=1;entryY=0.5;startArrow=none;startFill=0;endArrow=classic;endFill=1;jettySize=auto;orthogonalLoop=1;strokeColor=#000000;strokeWidth=3;fontSize=16;fontColor=#000000;" edge="1" parent="1" source="16" target="7"><mxGeometry relative="1" as="geometry"/></mxCell><mxCell id="16" value="Function body. &amp;nbsp;Calling the function runs this code" style="text;html=1;strokeColor=none;fillColor=none;align=center;verticalAlign=middle;whiteSpace=wrap;rounded=0;shadow=0;labelBackgroundColor=none;fontSize=16;fontColor=#000000;" vertex="1" parent="1"><mxGeometry x="724" y="432" width="160" height="55" as="geometry"/></mxCell><mxCell id="18" value="What's that '&lt;i&gt;func' &lt;/i&gt;thing?" style="rounded=0;whiteSpace=wrap;html=1;shadow=0;labelBackgroundColor=none;strokeColor=#9673a6;strokeWidth=2;fillColor=#e1d5e7;fontSize=12;fontColor=#000000;align=center;" vertex="1" parent="1"><mxGeometry x="110" y="180" width="150" height="30" as="geometry"/></mxCell></root></mxGraphModel></diagram><diagram id="cdee34f3-7c89-8165-ec4c-77e8a0983e66" name="017 - logging"><mxGraphModel dx="1238" dy="539" grid="1" gridSize="10" guides="1" tooltips="1" connect="1" arrows="1" fold="1" page="1" pageScale="1" pageWidth="1100" pageHeight="850" background="#ffffff" math="0" shadow="0"><root><mxCell id="0"/><mxCell id="1" parent="0"/><mxCell id="2" value="Javascript" style="rounded=0;whiteSpace=wrap;html=1;shadow=0;labelBackgroundColor=none;strokeColor=#080808;strokeWidth=2;fillColor=#ffffff;fontSize=32;fontColor=#000000;align=center;" vertex="1" parent="1"><mxGeometry x="270" y="190" width="180" height="60" as="geometry"/></mxCell><mxCell id="3" value="Language" style="text;html=1;strokeColor=none;fillColor=none;align=center;verticalAlign=middle;whiteSpace=wrap;rounded=0;shadow=0;labelBackgroundColor=none;fontSize=32;fontColor=#000000;" vertex="1" parent="1"><mxGeometry x="280" y="120" width="160" height="40" as="geometry"/></mxCell><mxCell id="4" value="To Log Something" style="text;html=1;strokeColor=none;fillColor=none;align=center;verticalAlign=middle;whiteSpace=wrap;rounded=0;shadow=0;labelBackgroundColor=none;fontSize=32;fontColor=#000000;" vertex="1" parent="1"><mxGeometry x="510" y="120" width="290" height="40" as="geometry"/></mxCell><mxCell id="5" value="console.log()" style="rounded=0;whiteSpace=wrap;html=1;shadow=0;labelBackgroundColor=none;strokeColor=#080808;strokeWidth=2;fillColor=#ffffff;fontSize=32;fontColor=#000000;align=center;" vertex="1" parent="1"><mxGeometry x="530" y="190" width="290" height="60" as="geometry"/></mxCell><mxCell id="6" value="" style="endArrow=none;html=1;strokeColor=#000000;strokeWidth=3;fontSize=32;fontColor=#000000;" edge="1" parent="1"><mxGeometry width="50" height="50" relative="1" as="geometry"><mxPoint x="490" y="500" as="sourcePoint"/><mxPoint x="490" y="120" as="targetPoint"/></mxGeometry></mxCell><mxCell id="7" value="" style="endArrow=none;html=1;strokeColor=#000000;strokeWidth=3;fontSize=32;fontColor=#000000;" edge="1" parent="1"><mxGeometry width="50" height="50" relative="1" as="geometry"><mxPoint x="250" y="170" as="sourcePoint"/><mxPoint x="800" y="170" as="targetPoint"/></mxGeometry></mxCell><mxCell id="8" value="Java" style="rounded=0;whiteSpace=wrap;html=1;shadow=0;labelBackgroundColor=none;strokeColor=#080808;strokeWidth=2;fillColor=#ffffff;fontSize=32;fontColor=#000000;align=center;" vertex="1" parent="1"><mxGeometry x="270" y="270" width="180" height="60" as="geometry"/></mxCell><mxCell id="9" value="System.out.println()" style="rounded=0;whiteSpace=wrap;html=1;shadow=0;labelBackgroundColor=none;strokeColor=#080808;strokeWidth=2;fillColor=#ffffff;fontSize=32;fontColor=#000000;align=center;" vertex="1" parent="1"><mxGeometry x="530" y="270" width="290" height="60" as="geometry"/></mxCell><mxCell id="10" value="Ruby" style="rounded=0;whiteSpace=wrap;html=1;shadow=0;labelBackgroundColor=none;strokeColor=#080808;strokeWidth=2;fillColor=#ffffff;fontSize=32;fontColor=#000000;align=center;" vertex="1" parent="1"><mxGeometry x="270" y="350" width="180" height="60" as="geometry"/></mxCell><mxCell id="11" value="puts" style="rounded=0;whiteSpace=wrap;html=1;shadow=0;labelBackgroundColor=none;strokeColor=#080808;strokeWidth=2;fillColor=#ffffff;fontSize=32;fontColor=#000000;align=center;" vertex="1" parent="1"><mxGeometry x="530" y="350" width="290" height="60" as="geometry"/></mxCell><mxCell id="12" value="Go" style="rounded=0;whiteSpace=wrap;html=1;shadow=0;labelBackgroundColor=none;strokeColor=#080808;strokeWidth=2;fillColor=#ffffff;fontSize=32;fontColor=#000000;align=center;" vertex="1" parent="1"><mxGeometry x="270" y="425" width="180" height="60" as="geometry"/></mxCell><mxCell id="13" value="fmt.Println()" style="rounded=0;whiteSpace=wrap;html=1;shadow=0;labelBackgroundColor=none;strokeColor=#080808;strokeWidth=2;fillColor=#ffffff;fontSize=32;fontColor=#000000;align=center;" vertex="1" parent="1"><mxGeometry x="530" y="425" width="290" height="60" as="geometry"/></mxCell></root></mxGraphModel></diagram><diagram id="4e6692e3-9a5a-a75a-e137-38949c158a26" name="018 - Review"><mxGraphModel dx="1238" dy="539" grid="1" gridSize="10" guides="1" tooltips="1" connect="1" arrows="1" fold="1" page="1" pageScale="1" pageWidth="1100" pageHeight="850" background="#ffffff" math="0" shadow="0"><root><mxCell id="0"/><mxCell id="1" parent="0"/><mxCell id="2" value="Two types of packages:" style="text;html=1;strokeColor=none;fillColor=none;align=center;verticalAlign=middle;whiteSpace=wrap;rounded=0;shadow=0;labelBackgroundColor=none;fontSize=22;fontColor=#000000;" vertex="1" parent="1"><mxGeometry x="306" y="172" width="235" height="30" as="geometry"/></mxCell><mxCell id="3" value="Packages" style="rounded=0;whiteSpace=wrap;html=1;shadow=0;labelBackgroundColor=none;strokeColor=#080808;strokeWidth=2;fillColor=#ffffff;fontSize=32;fontColor=#000000;align=center;" vertex="1" parent="1"><mxGeometry x="271" y="40" width="150" height="60" as="geometry"/></mxCell><mxCell id="4" value="executable" style="rounded=0;whiteSpace=wrap;html=1;shadow=0;labelBackgroundColor=none;strokeColor=#080808;strokeWidth=2;fillColor=#ffffff;fontSize=22;fontColor=#000000;align=center;" vertex="1" parent="1"><mxGeometry x="551" y="170" width="120" height="35" as="geometry"/></mxCell><mxCell id="7" value="and" style="text;html=1;strokeColor=none;fillColor=none;align=center;verticalAlign=middle;whiteSpace=wrap;rounded=0;shadow=0;labelBackgroundColor=none;fontSize=22;fontColor=#000000;" vertex="1" parent="1"><mxGeometry x="677" y="172" width="50" height="30" as="geometry"/></mxCell><mxCell id="8" value="dependency" style="rounded=0;whiteSpace=wrap;html=1;shadow=0;labelBackgroundColor=none;strokeColor=#080808;strokeWidth=2;fillColor=#ffffff;fontSize=22;fontColor=#000000;align=center;" vertex="1" parent="1"><mxGeometry x="731" y="170" width="129" height="35" as="geometry"/></mxCell><mxCell id="9" value="executable" style="rounded=0;whiteSpace=wrap;html=1;shadow=0;labelBackgroundColor=none;strokeColor=#080808;strokeWidth=2;fillColor=#ffffff;fontSize=22;fontColor=#000000;align=center;" vertex="1" parent="1"><mxGeometry x="311" y="222" width="120" height="35" as="geometry"/></mxCell><mxCell id="10" value="packages are used to create a file that we can run on our computer" style="text;html=1;strokeColor=none;fillColor=none;align=left;verticalAlign=middle;whiteSpace=wrap;rounded=0;shadow=0;labelBackgroundColor=none;fontSize=22;fontColor=#000000;" vertex="1" parent="1"><mxGeometry x="436" y="235" width="465" height="30" as="geometry"/></mxCell><mxCell id="11" value="Used to organize related code" style="text;html=1;strokeColor=none;fillColor=none;align=left;verticalAlign=middle;whiteSpace=wrap;rounded=0;shadow=0;labelBackgroundColor=none;fontSize=22;fontColor=#000000;" vertex="1" parent="1"><mxGeometry x="311" y="120" width="510" height="30" as="geometry"/></mxCell><mxCell id="12" value="executable" style="rounded=0;whiteSpace=wrap;html=1;shadow=0;labelBackgroundColor=none;strokeColor=#080808;strokeWidth=2;fillColor=#ffffff;fontSize=22;fontColor=#000000;align=center;" vertex="1" parent="1"><mxGeometry x="311" y="290" width="120" height="35" as="geometry"/></mxCell><mxCell id="13" value="packages must define a function named 'main'. This function is called automatically when the program is ran" style="text;html=1;strokeColor=none;fillColor=none;align=left;verticalAlign=middle;whiteSpace=wrap;rounded=0;shadow=0;labelBackgroundColor=none;fontSize=22;fontColor=#000000;" vertex="1" parent="1"><mxGeometry x="439" y="317" width="465" height="30" as="geometry"/></mxCell><mxCell id="14" value="Imports" style="rounded=0;whiteSpace=wrap;html=1;shadow=0;labelBackgroundColor=none;strokeColor=#080808;strokeWidth=2;fillColor=#ffffff;fontSize=32;fontColor=#000000;align=center;" vertex="1" parent="1"><mxGeometry x="272" y="390" width="150" height="60" as="geometry"/></mxCell><mxCell id="16" value="Package's don't get access to *any* other code by default" style="text;html=1;strokeColor=none;fillColor=none;align=left;verticalAlign=middle;whiteSpace=wrap;rounded=0;shadow=0;labelBackgroundColor=none;fontSize=22;fontColor=#000000;" vertex="1" parent="1"><mxGeometry x="307" y="470" width="510" height="30" as="geometry"/></mxCell><mxCell id="18" value="Use the&amp;nbsp;" style="text;html=1;strokeColor=none;fillColor=none;align=left;verticalAlign=middle;whiteSpace=wrap;rounded=0;shadow=0;labelBackgroundColor=none;fontSize=22;fontColor=#000000;" vertex="1" parent="1"><mxGeometry x="307" y="525" width="90" height="30" as="geometry"/></mxCell><mxCell id="19" value="import" style="rounded=0;whiteSpace=wrap;html=1;shadow=0;labelBackgroundColor=none;strokeColor=#080808;strokeWidth=2;fillColor=#ffffff;fontSize=22;fontColor=#000000;align=center;" vertex="1" parent="1"><mxGeometry x="392" y="525" width="90" height="35" as="geometry"/></mxCell><mxCell id="20" value="to access code from one package in another package" style="text;html=1;strokeColor=none;fillColor=none;align=left;verticalAlign=middle;whiteSpace=wrap;rounded=0;shadow=0;labelBackgroundColor=none;fontSize=22;fontColor=#000000;" vertex="1" parent="1"><mxGeometry x="496" y="539" width="335" height="30" as="geometry"/></mxCell><mxCell id="21" value="Logging" style="rounded=0;whiteSpace=wrap;html=1;shadow=0;labelBackgroundColor=none;strokeColor=#080808;strokeWidth=2;fillColor=#ffffff;fontSize=32;fontColor=#000000;align=center;" vertex="1" parent="1"><mxGeometry x="272" y="610" width="150" height="60" as="geometry"/></mxCell><mxCell id="22" value="The" style="text;html=1;strokeColor=none;fillColor=none;align=left;verticalAlign=middle;whiteSpace=wrap;rounded=0;shadow=0;labelBackgroundColor=none;fontSize=22;fontColor=#000000;" vertex="1" parent="1"><mxGeometry x="315" y="700" width="90" height="30" as="geometry"/></mxCell><mxCell id="23" value="fmt.Println" style="rounded=0;whiteSpace=wrap;html=1;shadow=0;labelBackgroundColor=none;strokeColor=#080808;strokeWidth=2;fillColor=#ffffff;fontSize=22;fontColor=#000000;align=center;" vertex="1" parent="1"><mxGeometry x="372" y="698" width="109" height="35" as="geometry"/></mxCell><mxCell id="24" value="function can be used to print out information" style="text;html=1;strokeColor=none;fillColor=none;align=left;verticalAlign=middle;whiteSpace=wrap;rounded=0;shadow=0;labelBackgroundColor=none;fontSize=22;fontColor=#000000;" vertex="1" parent="1"><mxGeometry x="488" y="711" width="394" height="30" as="geometry"/></mxCell></root></mxGraphModel></diagram><diagram id="b0790361-7add-c3a5-cf0c-0076f2fecd0e" name="019 - link"><mxGraphModel dx="990" dy="431" grid="1" gridSize="10" guides="1" tooltips="1" connect="1" arrows="1" fold="1" page="1" pageScale="1" pageWidth="1100" pageHeight="850" background="#ffffff" math="0" shadow="0"><root><mxCell id="0"/><mxCell id="1" parent="0"/><mxCell id="2" value="https://golang.org/dl/" style="text;html=1;strokeColor=none;fillColor=none;align=center;verticalAlign=middle;whiteSpace=wrap;rounded=0;shadow=0;labelBackgroundColor=none;fontSize=50;fontColor=#000000;" vertex="1" parent="1"><mxGeometry x="530" y="210" width="40" height="20" as="geometry"/></mxCell><mxCell id="3" value="Go runtime installer" style="text;html=1;strokeColor=none;fillColor=none;align=center;verticalAlign=middle;whiteSpace=wrap;rounded=0;shadow=0;labelBackgroundColor=none;fontSize=50;fontColor=#000000;" vertex="1" parent="1"><mxGeometry x="320" y="120" width="460" height="20" as="geometry"/></mxCell></root></mxGraphModel></diagram><diagram id="274fbe8f-062e-97d6-917c-953f0b4ddc95" name="020 - vscode link"><mxGraphModel dx="1238" dy="539" grid="1" gridSize="10" guides="1" tooltips="1" connect="1" arrows="1" fold="1" page="1" pageScale="1" pageWidth="1100" pageHeight="850" background="#ffffff" math="0" shadow="0"><root><mxCell id="0"/><mxCell id="1" parent="0"/><mxCell id="2" value="code.visualstudio.com/" style="text;html=1;strokeColor=none;fillColor=none;align=center;verticalAlign=middle;whiteSpace=wrap;rounded=0;shadow=0;labelBackgroundColor=none;fontSize=60;fontColor=#000000;" vertex="1" parent="1"><mxGeometry x="488" y="220" width="125" height="30" as="geometry"/></mxCell><mxCell id="3" value="VSCode Installer" style="text;html=1;strokeColor=none;fillColor=none;align=center;verticalAlign=middle;whiteSpace=wrap;rounded=0;shadow=0;labelBackgroundColor=none;fontSize=60;fontColor=#000000;" vertex="1" parent="1"><mxGeometry x="296" y="100" width="509" height="20" as="geometry"/></mxCell></root></mxGraphModel></diagram><diagram id="c641af81-3344-8a1c-5695-cc47a37e30c4" name="020 - pkg link"><mxGraphModel dx="1238" dy="539" grid="1" gridSize="10" guides="1" tooltips="1" connect="1" arrows="1" fold="1" page="1" pageScale="1" pageWidth="1100" pageHeight="850" background="#ffffff" math="0" shadow="0"><root><mxCell id="0"/><mxCell id="1" parent="0"/><mxCell id="2" value="golang.org/pkg" style="text;html=1;strokeColor=none;fillColor=none;align=center;verticalAlign=middle;whiteSpace=wrap;rounded=0;shadow=0;labelBackgroundColor=none;fontSize=70;fontColor=#000000;" vertex="1" parent="1"><mxGeometry x="530" y="210" width="40" height="20" as="geometry"/></mxCell></root></mxGraphModel></diagram></mxfile>